# This file uses centimeters as units for non-parametric coordinates.

mtllib crumpledPaper_02.mtl
g default
v -0.014504 0.029881 -0.019794
v 0.008838 0.031486 -0.022754
v 0.017432 0.049989 -0.009319
v 0.033467 0.025845 -0.005300
v -0.036378 0.027455 -0.035315
v -0.027804 0.054126 0.019836
v 0.021254 0.059281 0.023541
v 0.062533 0.049159 0.024780
v -0.042841 0.015735 -0.022212
v -0.032064 0.034290 0.035383
v 0.025730 0.033893 0.041457
v 0.048541 0.033535 0.022417
v -0.013868 0.030256 -0.014695
v -0.022233 0.018165 0.003166
v 0.022868 0.010287 0.044024
v 0.036919 0.025444 0.023431
v -0.024045 0.011543 -0.002661
v -0.012767 -0.002050 -0.008197
v -0.000924 0.003369 -0.016267
v 0.012782 0.016217 -0.026058
vt 0.000000 0.000000
vt 0.400000 0.000000
vt 0.800000 0.000000
vt 1.000000 0.000000
vt 0.000000 0.300000
vt 0.400000 0.300000
vt 0.800000 0.300000
vt 1.000000 0.300000
vt 0.000000 0.500000
vt 0.400000 0.500000
vt 0.800000 0.500000
vt 1.000000 0.500000
vt 0.000000 0.700000
vt 0.400000 0.700000
vt 0.800000 0.700000
vt 1.000000 0.700000
vt 0.000000 1.000000
vt 0.400000 1.000000
vt 0.800000 1.000000
vt 1.000000 1.000000
vn -0.506396 0.838186 0.202501
vn -0.110973 0.869521 -0.481268
vn 0.063611 0.860665 -0.505182
vn -0.711099 0.669198 -0.215668
vn 0.113155 0.982425 0.148446
vn 0.033478 0.842059 -0.538346
vn 0.454923 0.671104 -0.585376
vn 0.603235 0.796645 -0.038267
vn -0.603961 0.083781 0.792599
vn -0.997833 0.037963 0.053740
vn -0.037714 0.013355 0.999199
vn 0.400522 0.184581 0.897504
vn -0.260282 -0.860861 0.437232
vn -0.035762 -0.994471 0.098729
vn 0.104543 -0.878721 0.465747
vn 0.707884 -0.705024 0.042901
vn -0.277227 -0.878246 0.389652
vn -0.961531 0.022310 0.273790
vn 0.337141 -0.940038 0.051618
vn 0.613281 -0.774742 -0.153821
s 1
g crumpedPaper_02
usemtl initialShadingGroup
f 6/6/1 2/2/2 1/1/3 5/5/4
f 7/7/5 3/3/6 2/2/2 6/6/1
f 4/4/7 3/3/6 7/7/5 8/8/8
f 10/10/9 6/6/1 5/5/4 9/9/10
f 11/11/11 7/7/5 6/6/1 10/10/9
f 8/8/8 7/7/5 11/11/11 12/12/12
f 14/14/13 10/10/9 9/9/10 13/13/14
f 15/15/15 11/11/11 10/10/9 14/14/13
f 12/12/12 11/11/11 15/15/15 16/16/16
f 18/18/17 14/14/13 13/13/14 17/17/18
f 19/19/19 15/15/15 14/14/13 18/18/17
f 16/16/16 15/15/15 19/19/19 20/20/20
