# This file uses centimeters as units for non-parametric coordinates.

mtllib lightbulb_mesh.mtl
g default
v -0.049538 -0.005961 0.023467
v 0.005891 -0.005961 0.023467
v -0.036765 0.176506 0.010694
v -0.006882 0.176506 0.010694
v -0.036765 0.176506 -0.019190
v -0.006882 0.176506 -0.019190
v -0.049538 -0.005961 -0.031962
v 0.005891 -0.005961 -0.031962
v 0.012897 0.047619 0.030472
v -0.056544 0.047619 0.030472
v -0.056544 0.047619 -0.038968
v 0.012897 0.047619 -0.038968
v 0.014117 0.014009 0.031693
v -0.021823 0.047619 0.043098
v -0.021823 0.176684 0.014625
v -0.040696 0.176684 -0.004248
v -0.002951 0.176684 -0.004248
v -0.021823 0.176684 -0.023120
v -0.021823 0.047619 -0.051593
v -0.057764 0.014009 -0.040188
v 0.014117 0.014009 -0.040188
v -0.021823 -0.010762 -0.039253
v -0.056829 -0.010762 -0.004248
v 0.013182 -0.010762 -0.004248
v 0.025522 0.047619 -0.004248
v -0.069169 0.047619 -0.004248
v -0.047266 0.081278 0.021195
v 0.003619 0.081278 0.021195
v -0.047266 0.081278 -0.029691
v 0.003619 0.081278 -0.029691
v -0.036473 0.122264 0.010401
v -0.007174 0.122264 0.010401
v -0.036473 0.122264 -0.018897
v -0.007174 0.122264 -0.018897
v -0.021823 -0.010762 0.030757
v -0.057764 0.014009 0.031693
v -0.021823 0.013574 0.044798
v -0.021823 0.176997 -0.004248
v -0.021823 0.013574 -0.053294
v -0.021823 -0.019191 -0.004248
v 0.027223 0.013574 -0.004248
v -0.070869 0.013574 -0.004248
v -0.021823 0.081278 0.030447
v -0.056518 0.081278 -0.004248
v -0.021823 0.081278 -0.038942
v 0.012871 0.081278 -0.004248
v -0.021823 0.122264 0.015729
v -0.041800 0.122264 -0.004248
v -0.021823 0.122264 -0.024224
v -0.001847 0.122264 -0.004248
vt 0.514288 0.231816
vt 0.712402 0.055623
vt 0.496905 0.285971
vt 0.490258 0.257112
vt 0.764316 0.048026
vt 0.753073 0.074444
vt 0.750606 0.117692
vt 0.702446 0.113175
vt 0.499277 0.328331
vt 0.498312 0.508974
vt 0.237943 0.242488
vt 0.456109 0.509221
vt 0.477063 0.508757
vt 0.780198 0.300232
vt 0.801121 0.299370
vt 0.822106 0.298859
vt 0.843379 0.299035
vt 0.435222 0.510040
vt 0.358569 0.324431
vt 0.885366 0.060624
vt 0.409791 0.284283
vt 0.405539 0.327309
vt 0.843815 0.118864
vt 0.843077 0.076199
vt 0.833992 0.047965
vt 0.859282 0.021807
vt 0.418252 0.257272
vt 0.800369 0.000977
vt 0.453911 0.254672
vt 0.798886 0.045583
vt 0.797886 0.079595
vt 0.797347 0.120766
vt 0.453146 0.288802
vt 0.452574 0.330147
vt 0.720230 0.171365
vt 0.490730 0.374961
vt 0.758039 0.165658
vt 0.774481 0.225683
vt 0.752507 0.229540
vt 0.476628 0.433715
vt 0.452237 0.375019
vt 0.413364 0.375743
vt 0.453174 0.433877
vt 0.429753 0.435529
vt 0.835663 0.164850
vt 0.377281 0.380987
vt 0.797024 0.165232
vt 0.821597 0.223777
vt 0.798029 0.224006
vt 0.407884 0.439349
vt 0.212593 0.242430
vt 0.414413 0.511731
vt 0.843776 0.226034
vt 0.263293 0.242549
vt 0.759370 0.301969
vt 0.498706 0.435960
vt 0.873248 0.170919
vt 0.526806 0.380588
vt 0.892217 0.116139
vt 0.546399 0.327214
vt 0.741521 0.016507
vt 0.455474 0.210834
vt 0.396717 0.227014
vt 0.363262 0.265804
vt 0.544292 0.270810
vt 0.237884 0.267839
vt 0.217825 0.262514
vt 0.257967 0.262608
vt 0.238002 0.217139
vt 0.217917 0.222370
vt 0.258063 0.222464
vn 0.000000 -0.811882 0.583822
vn -0.000000 -0.163151 0.986601
vn -0.697882 -0.161002 0.697882
vn -0.483398 -0.729831 0.483397
vn 0.483398 -0.729831 0.483397
vn 0.697882 -0.161002 0.697882
vn 0.693787 0.193190 0.693785
vn -0.000000 0.188545 0.982065
vn -0.693787 0.193190 0.693785
vn 0.000000 0.999865 0.016418
vn 0.000000 1.000000 0.000000
vn -0.016417 0.999865 0.000001
vn -0.016415 0.999731 0.016415
vn 0.016415 0.999731 0.016415
vn 0.016417 0.999865 0.000000
vn 0.016415 0.999731 -0.016415
vn 0.000000 0.999865 -0.016417
vn -0.016415 0.999731 -0.016415
vn 0.000000 0.188547 -0.982064
vn -0.000000 -0.163150 -0.986601
vn -0.697882 -0.161002 -0.697882
vn -0.693786 0.193191 -0.693786
vn 0.693786 0.193191 -0.693786
vn 0.697882 -0.161002 -0.697882
vn 0.483398 -0.729831 -0.483397
vn -0.000000 -0.811882 -0.583822
vn -0.483398 -0.729831 -0.483397
vn 0.000000 -1.000000 0.000000
vn -0.583822 -0.811882 0.000000
vn 0.583822 -0.811882 0.000000
vn 0.986601 -0.163151 0.000000
vn 0.982065 0.188545 -0.000000
vn -0.986601 -0.163151 0.000000
vn -0.982065 0.188545 0.000000
vn 0.000000 0.346161 0.938175
vn -0.660370 0.357529 0.660367
vn 0.660370 0.357529 0.660367
vn 0.662643 0.349016 0.662640
vn 0.000000 0.337984 0.941152
vn -0.662643 0.349016 0.662640
vn -0.938175 0.346161 0.000000
vn -0.660368 0.357529 -0.660369
vn -0.941152 0.337983 0.000000
vn -0.662641 0.349014 -0.662643
vn 0.660368 0.357529 -0.660369
vn 0.000000 0.346160 -0.938175
vn 0.938175 0.346161 -0.000000
vn 0.662641 0.349014 -0.662643
vn 0.941152 0.337983 -0.000000
vn -0.000000 0.006620 0.999978
vn 0.707091 0.007132 0.707087
vn 0.707090 0.007132 0.707087
vn -0.000000 0.006620 0.999978
vn -0.707091 0.007132 0.707087
vn -0.707090 0.007132 0.707087
vn -0.999978 0.006621 0.000000
vn -0.999978 0.006621 0.000000
vn -0.707088 0.007132 -0.707089
vn -0.707089 0.007132 -0.707089
vn -0.000000 0.337981 -0.941153
vn 0.999978 0.006621 0.000000
vn 0.707088 0.007132 -0.707089
vn 0.707089 0.007132 -0.707089
vn 0.999978 0.006621 0.000000
vn -0.000000 0.006622 -0.999978
vn -0.000000 0.006622 -0.999978
s 1
g lightbulb_mesh
usemtl initialShadingGroup
f 35/1/1 37/65/2 36/3/3 1/4/4
f 2/5/5 13/6/6 37/2/2 35/61/1
f 37/2/2 13/6/6 9/7/7 14/8/8
f 36/3/3 37/65/2 14/60/8 10/9/9
s 2
f 15/54/10 38/11/11 16/69/12 3/71/13
f 4/68/14 17/66/15 38/11/11 15/54/10
f 38/11/11 17/66/15 6/67/16 18/51/17
f 16/69/12 38/11/11 18/51/17 5/70/18
s 1
f 19/19/19 39/64/20 20/21/21 11/22/22
f 12/23/23 21/24/24 39/20/20 19/59/19
f 39/20/20 21/24/24 8/25/25 22/26/26
f 20/21/21 39/64/20 22/63/26 7/27/27
f 7/27/27 22/63/26 40/62/28 23/29/29
f 22/26/26 8/25/25 24/30/30 40/28/28
f 40/28/28 24/30/30 2/5/5 35/61/1
f 23/29/29 40/62/28 35/1/1 1/4/4
f 2/5/5 24/30/30 41/31/31 13/6/6
f 24/30/30 8/25/25 21/24/24 41/31/31
f 41/31/31 21/24/24 12/23/23 25/32/32
f 13/6/6 41/31/31 25/32/32 9/7/7
f 7/27/27 23/29/29 42/33/33 20/21/21
f 23/29/29 1/4/4 36/3/3 42/33/33
f 42/33/33 36/3/3 10/9/9 26/34/34
f 20/21/21 42/33/33 26/34/34 11/22/22
f 10/9/9 14/60/8 43/58/35 27/36/36
f 14/8/8 9/7/7 28/37/37 43/35/35
f 43/35/35 28/37/37 32/38/38 47/39/39
f 27/36/36 43/58/35 47/56/39 31/40/40
f 11/22/22 26/34/34 44/41/41 29/42/42
f 26/34/34 10/9/9 27/36/36 44/41/41
f 44/41/41 27/36/36 31/40/40 48/43/43
f 29/42/42 44/41/41 48/43/43 33/44/44
f 30/45/45 12/23/23 19/59/19 45/57/46
f 45/46/46 19/19/19 11/22/22 29/42/42
f 9/7/7 25/32/32 46/47/47 28/37/37
f 25/32/32 12/23/23 30/45/45 46/47/47
f 46/47/47 30/45/45 34/48/48 50/49/49
f 28/37/37 46/47/47 50/49/49 32/38/38
s 4
f 47/39/50 32/38/51 4/14/52 15/55/53
f 31/40/54 47/56/50 15/10/53 3/13/55
f 48/43/56 31/40/54 3/13/55 16/12/57
f 33/44/58 48/43/56 16/12/57 5/18/59
s 1
f 30/45/45 45/57/46 49/53/60 34/48/48
f 45/46/46 29/42/42 33/44/44 49/50/60
s 4
f 50/49/61 34/48/62 6/16/63 17/15/64
f 32/38/51 50/49/61 17/15/64 4/14/52
f 5/18/59 18/52/65 49/50/66 33/44/58
f 18/17/65 6/16/63 34/48/62 49/53/66
