# This file uses centimeters as units for non-parametric coordinates.

mtllib paperPad_mesh.mtl
g default
v -0.134652 -0.001961 0.091111
v 0.150746 -0.003062 0.086209
v -0.134564 0.019427 0.091439
v 0.150834 0.018325 0.086537
v -0.137481 0.022053 -0.078973
v 0.147917 0.020951 -0.083875
v -0.137569 0.000666 -0.079301
v 0.147829 -0.000436 -0.084203
v -0.131972 0.023729 0.067361
v -0.140322 0.021080 0.067192
v -0.140379 0.012325 0.066881
v -0.132065 0.009563 0.066857
v -0.126869 0.016611 0.067154
v -0.130413 0.028361 0.074632
v -0.144531 0.023882 0.074347
v -0.144628 0.009077 0.073820
v -0.130569 0.004406 0.073780
v -0.121783 0.016324 0.074282
v -0.127762 0.036359 0.072231
v -0.151215 0.028919 0.071757
v -0.151376 0.004325 0.070882
v -0.128022 -0.003435 0.070815
v -0.113428 0.016363 0.071649
v -0.127684 0.036669 0.063476
v -0.151137 0.029230 0.063002
v -0.151298 0.004636 0.062127
v -0.127944 -0.003124 0.062060
v -0.113349 0.016674 0.062894
v -0.130286 0.028864 0.060466
v -0.144404 0.024386 0.060181
v -0.144501 0.009581 0.059654
v -0.130442 0.004909 0.059614
v -0.121657 0.016827 0.060116
v -0.132064 0.023729 0.032087
v -0.140414 0.021080 0.031919
v -0.140471 0.012325 0.031607
v -0.132157 0.009563 0.031583
v -0.126961 0.016611 0.031880
v -0.130505 0.028361 0.039358
v -0.144623 0.023882 0.039073
v -0.144720 0.009077 0.038546
v -0.130661 0.004406 0.038506
v -0.121876 0.016324 0.039008
v -0.127854 0.036359 0.036957
v -0.151307 0.028919 0.036483
v -0.151468 0.004325 0.035608
v -0.128114 -0.003435 0.035541
v -0.113520 0.016363 0.036375
v -0.127776 0.036669 0.028202
v -0.151229 0.029230 0.027728
v -0.151390 0.004636 0.026853
v -0.128036 -0.003124 0.026786
v -0.113441 0.016674 0.027620
v -0.130378 0.028864 0.025192
v -0.144496 0.024386 0.024907
v -0.144593 0.009581 0.024380
v -0.130534 0.004909 0.024340
v -0.121749 0.016827 0.024842
v -0.133172 0.023729 -0.000732
v -0.141521 0.021080 -0.000901
v -0.141578 0.012325 -0.001212
v -0.133264 0.009563 -0.001236
v -0.128069 0.016611 -0.000939
v -0.131612 0.028361 0.006539
v -0.145731 0.023882 0.006254
v -0.145827 0.009077 0.005727
v -0.131768 0.004406 0.005687
v -0.122983 0.016324 0.006189
v -0.128961 0.036359 0.004138
v -0.152415 0.028919 0.003664
v -0.152576 0.004325 0.002788
v -0.129221 -0.003435 0.002722
v -0.114627 0.016363 0.003556
v -0.128883 0.036669 -0.004617
v -0.152337 0.029230 -0.005092
v -0.152497 0.004636 -0.005967
v -0.129143 -0.003124 -0.006033
v -0.114549 0.016674 -0.005199
v -0.131485 0.028864 -0.007627
v -0.145604 0.024386 -0.007912
v -0.145701 0.009581 -0.008439
v -0.131642 0.004909 -0.008479
v -0.122856 0.016827 -0.007977
v -0.134126 0.023729 -0.031336
v -0.142476 0.021080 -0.031505
v -0.142533 0.012325 -0.031817
v -0.134219 0.009563 -0.031840
v -0.129023 0.016611 -0.031544
v -0.132567 0.028361 -0.024065
v -0.146685 0.023882 -0.024351
v -0.146782 0.009077 -0.024877
v -0.132723 0.004406 -0.024918
v -0.123938 0.016324 -0.024416
v -0.129916 0.036359 -0.026467
v -0.153369 0.028919 -0.026941
v -0.153530 0.004325 -0.027816
v -0.130176 -0.003435 -0.027883
v -0.115582 0.016363 -0.027049
v -0.129838 0.036669 -0.035222
v -0.153291 0.029230 -0.035696
v -0.153452 0.004636 -0.036571
v -0.130098 -0.003124 -0.036638
v -0.115503 0.016674 -0.035804
v -0.132440 0.028864 -0.038231
v -0.146558 0.024386 -0.038517
v -0.146655 0.009581 -0.039043
v -0.132596 0.004909 -0.039084
v -0.123811 0.016827 -0.038582
v -0.136140 0.023729 -0.061758
v -0.144489 0.021080 -0.061926
v -0.144547 0.012325 -0.062238
v -0.136233 0.009563 -0.062262
v -0.131037 0.016611 -0.061965
v -0.134580 0.028361 -0.054487
v -0.148699 0.023882 -0.054772
v -0.148796 0.009077 -0.055299
v -0.134737 0.004406 -0.055339
v -0.125951 0.016324 -0.054837
v -0.131930 0.036359 -0.056888
v -0.155383 0.028919 -0.057362
v -0.155544 0.004325 -0.058237
v -0.132190 -0.003435 -0.058304
v -0.117595 0.016363 -0.057470
v -0.131851 0.036670 -0.065643
v -0.155305 0.029230 -0.066117
v -0.155465 0.004636 -0.066992
v -0.132111 -0.003124 -0.067059
v -0.117517 0.016674 -0.066225
v -0.134454 0.028864 -0.068653
v -0.148572 0.024386 -0.068938
v -0.148669 0.009581 -0.069465
v -0.134610 0.004909 -0.069505
v -0.125825 0.016827 -0.069003
vt 0.375000 0.000000
vt 0.625000 0.000000
vt 0.375000 0.250000
vt 0.625000 0.250000
vt 0.375000 0.500000
vt 0.625000 0.500000
vt 0.375000 0.750000
vt 0.625000 0.750000
vt 0.375000 1.000000
vt 0.625000 1.000000
vt 0.875000 0.000000
vt 0.875000 0.250000
vt 0.125000 0.000000
vt 0.125000 0.250000
vt 0.200000 1.000000
vt 0.000000 1.000000
vt 0.000000 0.800000
vt 0.200000 0.800000
vt 0.400000 1.000000
vt 0.400000 0.800000
vt 0.600000 1.000000
vt 0.600000 0.800000
vt 0.800000 1.000000
vt 0.800000 0.800000
vt 1.000000 1.000000
vt 1.000000 0.800000
vt 0.000000 0.600000
vt 0.200000 0.600000
vt 0.400000 0.600000
vt 0.600000 0.600000
vt 0.800000 0.600000
vt 1.000000 0.600000
vt 0.000000 0.400000
vt 0.200000 0.400000
vt 0.400000 0.400000
vt 0.600000 0.400000
vt 0.800000 0.400000
vt 1.000000 0.400000
vt 0.000000 0.200000
vt 0.200000 0.200000
vt 0.400000 0.200000
vt 0.600000 0.200000
vt 0.800000 0.200000
vt 1.000000 0.200000
vt 0.000000 0.000000
vt 0.200000 0.000000
vt 0.400000 0.000000
vt 0.600000 0.000000
vt 0.800000 0.000000
vt 1.000000 0.000000
vt 0.200000 1.000000
vt 0.000000 1.000000
vt 0.000000 0.800000
vt 0.200000 0.800000
vt 0.400000 1.000000
vt 0.400000 0.800000
vt 0.600000 1.000000
vt 0.600000 0.800000
vt 0.800000 1.000000
vt 0.800000 0.800000
vt 1.000000 1.000000
vt 1.000000 0.800000
vt 0.000000 0.600000
vt 0.200000 0.600000
vt 0.400000 0.600000
vt 0.600000 0.600000
vt 0.800000 0.600000
vt 1.000000 0.600000
vt 0.000000 0.400000
vt 0.200000 0.400000
vt 0.400000 0.400000
vt 0.600000 0.400000
vt 0.800000 0.400000
vt 1.000000 0.400000
vt 0.000000 0.200000
vt 0.200000 0.200000
vt 0.400000 0.200000
vt 0.600000 0.200000
vt 0.800000 0.200000
vt 1.000000 0.200000
vt 0.000000 0.000000
vt 0.200000 0.000000
vt 0.400000 0.000000
vt 0.600000 0.000000
vt 0.800000 0.000000
vt 1.000000 0.000000
vt 0.200000 1.000000
vt 0.000000 1.000000
vt 0.000000 0.800000
vt 0.200000 0.800000
vt 0.400000 1.000000
vt 0.400000 0.800000
vt 0.600000 1.000000
vt 0.600000 0.800000
vt 0.800000 1.000000
vt 0.800000 0.800000
vt 1.000000 1.000000
vt 1.000000 0.800000
vt 0.000000 0.600000
vt 0.200000 0.600000
vt 0.400000 0.600000
vt 0.600000 0.600000
vt 0.800000 0.600000
vt 1.000000 0.600000
vt 0.000000 0.400000
vt 0.200000 0.400000
vt 0.400000 0.400000
vt 0.600000 0.400000
vt 0.800000 0.400000
vt 1.000000 0.400000
vt 0.000000 0.200000
vt 0.200000 0.200000
vt 0.400000 0.200000
vt 0.600000 0.200000
vt 0.800000 0.200000
vt 1.000000 0.200000
vt 0.000000 0.000000
vt 0.200000 0.000000
vt 0.400000 0.000000
vt 0.600000 0.000000
vt 0.800000 0.000000
vt 1.000000 0.000000
vt 0.200000 1.000000
vt 0.000000 1.000000
vt 0.000000 0.800000
vt 0.200000 0.800000
vt 0.400000 1.000000
vt 0.400000 0.800000
vt 0.600000 1.000000
vt 0.600000 0.800000
vt 0.800000 1.000000
vt 0.800000 0.800000
vt 1.000000 1.000000
vt 1.000000 0.800000
vt 0.000000 0.600000
vt 0.200000 0.600000
vt 0.400000 0.600000
vt 0.600000 0.600000
vt 0.800000 0.600000
vt 1.000000 0.600000
vt 0.000000 0.400000
vt 0.200000 0.400000
vt 0.400000 0.400000
vt 0.600000 0.400000
vt 0.800000 0.400000
vt 1.000000 0.400000
vt 0.000000 0.200000
vt 0.200000 0.200000
vt 0.400000 0.200000
vt 0.600000 0.200000
vt 0.800000 0.200000
vt 1.000000 0.200000
vt 0.000000 0.000000
vt 0.200000 0.000000
vt 0.400000 0.000000
vt 0.600000 0.000000
vt 0.800000 0.000000
vt 1.000000 0.000000
vt 0.200000 1.000000
vt 0.000000 1.000000
vt 0.000000 0.800000
vt 0.200000 0.800000
vt 0.400000 1.000000
vt 0.400000 0.800000
vt 0.600000 1.000000
vt 0.600000 0.800000
vt 0.800000 1.000000
vt 0.800000 0.800000
vt 1.000000 1.000000
vt 1.000000 0.800000
vt 0.000000 0.600000
vt 0.200000 0.600000
vt 0.400000 0.600000
vt 0.600000 0.600000
vt 0.800000 0.600000
vt 1.000000 0.600000
vt 0.000000 0.400000
vt 0.200000 0.400000
vt 0.400000 0.400000
vt 0.600000 0.400000
vt 0.800000 0.400000
vt 1.000000 0.400000
vt 0.000000 0.200000
vt 0.200000 0.200000
vt 0.400000 0.200000
vt 0.600000 0.200000
vt 0.800000 0.200000
vt 1.000000 0.200000
vt 0.000000 0.000000
vt 0.200000 0.000000
vt 0.400000 0.000000
vt 0.600000 0.000000
vt 0.800000 0.000000
vt 1.000000 0.000000
vn 0.017112 -0.015407 0.999735
vn 0.017112 -0.015407 0.999735
vn 0.017112 -0.015407 0.999735
vn 0.017112 -0.015407 0.999735
vn 0.004122 0.999874 0.015339
vn 0.004122 0.999874 0.015339
vn 0.004122 0.999874 0.015339
vn 0.004122 0.999874 0.015339
vn -0.017112 0.015408 -0.999735
vn -0.017112 0.015408 -0.999735
vn -0.017112 0.015408 -0.999735
vn -0.017112 0.015408 -0.999735
vn -0.004122 -0.999874 -0.015339
vn -0.004122 -0.999874 -0.015339
vn -0.004122 -0.999874 -0.015339
vn -0.004122 -0.999874 -0.015339
vn 0.999845 -0.003857 -0.017173
vn 0.999845 -0.003857 -0.017173
vn 0.999845 -0.003857 -0.017173
vn 0.999845 -0.003857 -0.017173
vn -0.999845 0.003858 0.017173
vn -0.999845 0.003858 0.017173
vn -0.999845 0.003858 0.017173
vn -0.999845 0.003858 0.017173
vn 0.805133 -0.592933 -0.013864
vn -0.315205 -0.948321 -0.036513
vn 0.001131 -0.005199 0.999986
vn -0.034650 -0.016548 0.999263
vn 0.812806 0.581865 0.027943
vn -0.034895 -0.054067 0.997927
vn -0.302790 0.952549 0.031129
vn 0.000734 -0.065903 0.997826
vn -0.999939 0.006840 -0.008704
vn 0.022999 -0.035702 0.999098
vn 0.288164 0.863694 0.413515
vn -0.748131 0.534967 0.392568
vn -0.755231 -0.551707 0.353902
vn 0.276679 -0.894584 0.350954
vn 0.921532 -0.019814 0.387796
vn 0.294960 0.890672 -0.345981
vn -0.741336 0.561948 -0.366927
vn -0.748436 -0.524726 -0.405594
vn 0.283472 -0.867604 -0.408542
vn 0.928325 0.007157 -0.371700
vn 0.019004 0.065772 -0.997654
vn -0.016777 0.054420 -0.998377
vn -0.017021 0.016902 -0.999712
vn 0.018605 0.005061 -0.999814
vn 0.040870 0.035266 -0.998542
vn 0.805132 -0.592933 -0.013865
vn -0.315201 -0.948322 -0.036512
vn 0.001132 -0.005197 0.999986
vn -0.034649 -0.016547 0.999263
vn 0.812805 0.581865 0.027943
vn -0.034894 -0.054066 0.997928
vn -0.302790 0.952549 0.031129
vn 0.000734 -0.065901 0.997826
vn -0.999939 0.006839 -0.008702
vn 0.022999 -0.035702 0.999098
vn 0.288165 0.863693 0.413516
vn -0.748130 0.534968 0.392569
vn -0.755231 -0.551706 0.353903
vn 0.276678 -0.894584 0.350955
vn 0.921532 -0.019814 0.387797
vn 0.294959 0.890672 -0.345981
vn -0.741338 0.561947 -0.366926
vn -0.748436 -0.524726 -0.405593
vn 0.283473 -0.867604 -0.408541
vn 0.928325 0.007156 -0.371700
vn 0.019002 0.065770 -0.997654
vn -0.016778 0.054420 -0.998377
vn -0.017022 0.016899 -0.999712
vn 0.018606 0.005059 -0.999814
vn 0.040868 0.035264 -0.998542
vn 0.805134 -0.592932 -0.013863
vn -0.315204 -0.948322 -0.036512
vn 0.001130 -0.005196 0.999986
vn -0.034650 -0.016545 0.999263
vn 0.812804 0.581867 0.027941
vn -0.034895 -0.054065 0.997928
vn -0.302791 0.952548 0.031130
vn 0.000733 -0.065902 0.997826
vn -0.999939 0.006838 -0.008705
vn 0.022998 -0.035701 0.999098
vn 0.288163 0.863693 0.413517
vn -0.748131 0.534967 0.392568
vn -0.755230 -0.551708 0.353902
vn 0.276678 -0.894584 0.350953
vn 0.921532 -0.019816 0.387797
vn 0.294961 0.890671 -0.345981
vn -0.741337 0.561946 -0.366928
vn -0.748436 -0.524727 -0.405593
vn 0.283473 -0.867604 -0.408541
vn 0.928326 0.007155 -0.371699
vn 0.019003 0.065770 -0.997654
vn -0.016776 0.054419 -0.998377
vn -0.017020 0.016902 -0.999712
vn 0.018605 0.005063 -0.999814
vn 0.040868 0.035267 -0.998542
vn 0.805132 -0.592933 -0.013864
vn -0.315203 -0.948322 -0.036513
vn 0.001131 -0.005195 0.999986
vn -0.034650 -0.016545 0.999263
vn 0.812805 0.581865 0.027945
vn -0.034896 -0.054067 0.997927
vn -0.302792 0.952548 0.031129
vn 0.000734 -0.065903 0.997826
vn -0.999939 0.006839 -0.008706
vn 0.022999 -0.035701 0.999098
vn 0.288165 0.863693 0.413516
vn -0.748131 0.534967 0.392569
vn -0.755230 -0.551708 0.353903
vn 0.276679 -0.894584 0.350954
vn 0.921532 -0.019815 0.387796
vn 0.294960 0.890671 -0.345982
vn -0.741336 0.561947 -0.366928
vn -0.748436 -0.524726 -0.405594
vn 0.283474 -0.867604 -0.408542
vn 0.928326 0.007155 -0.371699
vn 0.019002 0.065772 -0.997654
vn -0.016779 0.054420 -0.998377
vn -0.017022 0.016903 -0.999712
vn 0.018604 0.005064 -0.999814
vn 0.040868 0.035267 -0.998542
vn 0.805132 -0.592933 -0.013864
vn -0.315202 -0.948322 -0.036513
vn 0.001132 -0.005198 0.999986
vn -0.034647 -0.016549 0.999263
vn 0.812803 0.581868 0.027939
vn -0.034895 -0.054067 0.997927
vn -0.302795 0.952547 0.031131
vn 0.000733 -0.065903 0.997826
vn -0.999939 0.006842 -0.008707
vn 0.022997 -0.035700 0.999098
vn 0.288163 0.863692 0.413520
vn -0.748130 0.534968 0.392570
vn -0.755231 -0.551710 0.353896
vn 0.276676 -0.894588 0.350945
vn 0.921532 -0.019823 0.387797
vn 0.294959 0.890674 -0.345976
vn -0.741337 0.561948 -0.366925
vn -0.748438 -0.524722 -0.405595
vn 0.283474 -0.867602 -0.408546
vn 0.928326 0.007166 -0.371697
vn 0.019003 0.065767 -0.997654
vn -0.016775 0.054417 -0.998377
vn -0.017019 0.016901 -0.999712
vn 0.018606 0.005062 -0.999814
vn 0.040870 0.035264 -0.998542
s off
g noteBook_mesh
usemtl initialShadingGroup
f 1/1/1 2/2/2 4/4/3 3/3/4
f 3/3/5 4/4/6 6/6/7 5/5/8
f 5/5/9 6/6/10 8/8/11 7/7/12
f 7/7/13 8/8/14 2/10/15 1/9/16
f 2/2/17 8/11/18 6/12/19 4/4/20
f 7/13/21 1/1/22 3/3/23 5/14/24
s 1
f 10/15/25 9/16/26 14/17/27 15/18/28
f 11/19/29 10/15/25 15/18/28 16/20/30
f 12/21/31 11/19/29 16/20/30 17/22/32
f 13/23/33 12/21/31 17/22/32 18/24/34
f 9/25/26 13/23/33 18/24/34 14/26/27
f 15/18/28 14/17/27 19/27/35 20/28/36
f 16/20/30 15/18/28 20/28/36 21/29/37
f 17/22/32 16/20/30 21/29/37 22/30/38
f 18/24/34 17/22/32 22/30/38 23/31/39
f 14/26/27 18/24/34 23/31/39 19/32/35
f 20/28/36 19/27/35 24/33/40 25/34/41
f 21/29/37 20/28/36 25/34/41 26/35/42
f 22/30/38 21/29/37 26/35/42 27/36/43
f 23/31/39 22/30/38 27/36/43 28/37/44
f 19/32/35 23/31/39 28/37/44 24/38/40
f 25/34/41 24/33/40 29/39/45 30/40/46
f 26/35/42 25/34/41 30/40/46 31/41/47
f 27/36/43 26/35/42 31/41/47 32/42/48
f 28/37/44 27/36/43 32/42/48 33/43/49
f 24/38/40 28/37/44 33/43/49 29/44/45
f 30/40/46 29/39/45 9/45/26 10/46/25
f 31/41/47 30/40/46 10/46/25 11/47/29
f 32/42/48 31/41/47 11/47/29 12/48/31
f 33/43/49 32/42/48 12/48/31 13/49/33
f 29/44/45 33/43/49 13/49/33 9/50/26
s 2
f 35/51/50 34/52/51 39/53/52 40/54/53
f 36/55/54 35/51/50 40/54/53 41/56/55
f 37/57/56 36/55/54 41/56/55 42/58/57
f 38/59/58 37/57/56 42/58/57 43/60/59
f 34/61/51 38/59/58 43/60/59 39/62/52
f 40/54/53 39/53/52 44/63/60 45/64/61
f 41/56/55 40/54/53 45/64/61 46/65/62
f 42/58/57 41/56/55 46/65/62 47/66/63
f 43/60/59 42/58/57 47/66/63 48/67/64
f 39/62/52 43/60/59 48/67/64 44/68/60
f 45/64/61 44/63/60 49/69/65 50/70/66
f 46/65/62 45/64/61 50/70/66 51/71/67
f 47/66/63 46/65/62 51/71/67 52/72/68
f 48/67/64 47/66/63 52/72/68 53/73/69
f 44/68/60 48/67/64 53/73/69 49/74/65
f 50/70/66 49/69/65 54/75/70 55/76/71
f 51/71/67 50/70/66 55/76/71 56/77/72
f 52/72/68 51/71/67 56/77/72 57/78/73
f 53/73/69 52/72/68 57/78/73 58/79/74
f 49/74/65 53/73/69 58/79/74 54/80/70
f 55/76/71 54/75/70 34/81/51 35/82/50
f 56/77/72 55/76/71 35/82/50 36/83/54
f 57/78/73 56/77/72 36/83/54 37/84/56
f 58/79/74 57/78/73 37/84/56 38/85/58
f 54/80/70 58/79/74 38/85/58 34/86/51
s 3
f 60/87/75 59/88/76 64/89/77 65/90/78
f 61/91/79 60/87/75 65/90/78 66/92/80
f 62/93/81 61/91/79 66/92/80 67/94/82
f 63/95/83 62/93/81 67/94/82 68/96/84
f 59/97/76 63/95/83 68/96/84 64/98/77
f 65/90/78 64/89/77 69/99/85 70/100/86
f 66/92/80 65/90/78 70/100/86 71/101/87
f 67/94/82 66/92/80 71/101/87 72/102/88
f 68/96/84 67/94/82 72/102/88 73/103/89
f 64/98/77 68/96/84 73/103/89 69/104/85
f 70/100/86 69/99/85 74/105/90 75/106/91
f 71/101/87 70/100/86 75/106/91 76/107/92
f 72/102/88 71/101/87 76/107/92 77/108/93
f 73/103/89 72/102/88 77/108/93 78/109/94
f 69/104/85 73/103/89 78/109/94 74/110/90
f 75/106/91 74/105/90 79/111/95 80/112/96
f 76/107/92 75/106/91 80/112/96 81/113/97
f 77/108/93 76/107/92 81/113/97 82/114/98
f 78/109/94 77/108/93 82/114/98 83/115/99
f 74/110/90 78/109/94 83/115/99 79/116/95
f 80/112/96 79/111/95 59/117/76 60/118/75
f 81/113/97 80/112/96 60/118/75 61/119/79
f 82/114/98 81/113/97 61/119/79 62/120/81
f 83/115/99 82/114/98 62/120/81 63/121/83
f 79/116/95 83/115/99 63/121/83 59/122/76
s 4
f 85/123/100 84/124/101 89/125/102 90/126/103
f 86/127/104 85/123/100 90/126/103 91/128/105
f 87/129/106 86/127/104 91/128/105 92/130/107
f 88/131/108 87/129/106 92/130/107 93/132/109
f 84/133/101 88/131/108 93/132/109 89/134/102
f 90/126/103 89/125/102 94/135/110 95/136/111
f 91/128/105 90/126/103 95/136/111 96/137/112
f 92/130/107 91/128/105 96/137/112 97/138/113
f 93/132/109 92/130/107 97/138/113 98/139/114
f 89/134/102 93/132/109 98/139/114 94/140/110
f 95/136/111 94/135/110 99/141/115 100/142/116
f 96/137/112 95/136/111 100/142/116 101/143/117
f 97/138/113 96/137/112 101/143/117 102/144/118
f 98/139/114 97/138/113 102/144/118 103/145/119
f 94/140/110 98/139/114 103/145/119 99/146/115
f 100/142/116 99/141/115 104/147/120 105/148/121
f 101/143/117 100/142/116 105/148/121 106/149/122
f 102/144/118 101/143/117 106/149/122 107/150/123
f 103/145/119 102/144/118 107/150/123 108/151/124
f 99/146/115 103/145/119 108/151/124 104/152/120
f 105/148/121 104/147/120 84/153/101 85/154/100
f 106/149/122 105/148/121 85/154/100 86/155/104
f 107/150/123 106/149/122 86/155/104 87/156/106
f 108/151/124 107/150/123 87/156/106 88/157/108
f 104/152/120 108/151/124 88/157/108 84/158/101
s 5
f 110/159/125 109/160/126 114/161/127 115/162/128
f 111/163/129 110/159/125 115/162/128 116/164/130
f 112/165/131 111/163/129 116/164/130 117/166/132
f 113/167/133 112/165/131 117/166/132 118/168/134
f 109/169/126 113/167/133 118/168/134 114/170/127
f 115/162/128 114/161/127 119/171/135 120/172/136
f 116/164/130 115/162/128 120/172/136 121/173/137
f 117/166/132 116/164/130 121/173/137 122/174/138
f 118/168/134 117/166/132 122/174/138 123/175/139
f 114/170/127 118/168/134 123/175/139 119/176/135
f 120/172/136 119/171/135 124/177/140 125/178/141
f 121/173/137 120/172/136 125/178/141 126/179/142
f 122/174/138 121/173/137 126/179/142 127/180/143
f 123/175/139 122/174/138 127/180/143 128/181/144
f 119/176/135 123/175/139 128/181/144 124/182/140
f 125/178/141 124/177/140 129/183/145 130/184/146
f 126/179/142 125/178/141 130/184/146 131/185/147
f 127/180/143 126/179/142 131/185/147 132/186/148
f 128/181/144 127/180/143 132/186/148 133/187/149
f 124/182/140 128/181/144 133/187/149 129/188/145
f 130/184/146 129/183/145 109/189/126 110/190/125
f 131/185/147 130/184/146 110/190/125 111/191/129
f 132/186/148 131/185/147 111/191/129 112/192/131
f 133/187/149 132/186/148 112/192/131 113/193/133
f 129/188/145 133/187/149 113/193/133 109/194/126
