# Blender v2.77 (sub 0) OBJ File: ''
# www.blender.org
mtllib phoneBase_mesh.mtl
o phoneBase_mesh
v 0.135078 0.119710 0.018571
v 0.116379 0.135027 0.001194
v 0.122707 0.141973 0.001153
v 0.141406 0.126656 0.018530
v 0.093406 0.153960 0.001344
v 0.099735 0.160906 0.001303
v 0.074935 0.169278 0.018963
v 0.081263 0.176223 0.018922
v 0.068020 0.175128 0.047321
v 0.074348 0.182074 0.047281
v 0.075304 0.169278 0.075588
v 0.081632 0.176223 0.075547
v 0.094003 0.153960 0.092963
v 0.100332 0.160906 0.092922
v 0.116977 0.135027 0.092814
v 0.123304 0.141973 0.092772
v 0.135448 0.119710 0.075195
v 0.141776 0.126656 0.075153
v 0.142361 0.113860 0.046837
v 0.148690 0.120805 0.046795
v 0.111520 0.151440 0.047038
v 0.174532 0.004149 0.147991
v 0.174532 0.033637 0.147991
v -0.052230 0.033637 0.150503
v -0.052230 0.004149 0.150503
v 0.170782 0.033637 -0.190596
v 0.170782 0.004149 -0.190596
v -0.055980 0.004149 -0.188084
v -0.055980 0.033637 -0.188084
v 0.162221 0.004149 -0.181844
v 0.165780 0.004149 0.139431
v -0.043669 0.004149 0.141751
v -0.047227 0.004149 -0.179524
v 0.167941 0.033637 0.142667
v 0.167594 0.094936 0.142148
v -0.045423 0.094936 0.144508
v -0.045758 0.033637 0.145034
v -0.049042 0.094936 -0.182241
v -0.049389 0.033637 -0.182761
v 0.163976 0.094936 -0.184601
v 0.164311 0.033637 -0.185127
v 0.010162 0.224079 0.016729
v 0.059445 0.224079 0.016811
v 0.059296 0.224079 0.003436
v 0.010023 0.224079 0.004211
v -0.042059 0.104644 0.139220
v -0.036289 0.104644 0.133773
v -0.038181 0.104644 -0.037082
v -0.045561 0.104644 -0.177030
v 0.158750 0.104644 0.131613
v 0.060262 0.184552 0.090647
v 0.010989 0.184552 0.091422
v 0.059445 0.184552 0.016811
v 0.156858 0.104644 -0.039242
v 0.059296 0.184552 0.003436
v 0.010023 0.184552 0.004211
v 0.010162 0.184552 0.016729
v 0.164114 0.104644 0.136937
v 0.160612 0.104644 -0.179314
v 0.010989 0.224079 0.091422
v 0.060262 0.224079 0.090647
v 0.060103 0.224079 0.076201
v 0.010835 0.224079 0.077551
v 0.060102 0.184552 0.076202
v 0.010835 0.184552 0.077551
v 0.119883 0.112577 -0.052082
v 0.124135 0.108362 -0.047974
v 0.121855 0.108566 -0.172612
v 0.117757 0.112767 -0.168337
v 0.003629 0.113026 -0.049955
v -0.000502 0.108844 -0.045694
v 0.001503 0.113217 -0.166211
v -0.002782 0.109048 -0.170332
v 0.124065 0.090282 -0.048003
v -0.000573 0.090764 -0.045722
v -0.002852 0.090968 -0.170360
v 0.121786 0.090486 -0.172641
vt 0.6250 0.0000
vt 0.6250 0.0880
vt 0.3750 0.0880
vt 0.3750 0.0000
vt 0.6250 0.6620
vt 0.6250 0.7500
vt 0.3750 0.7500
vt 0.3750 0.6620
vt 0.8750 0.0880
vt 0.8750 0.0000
vt 0.1250 0.0000
vt 0.1250 0.0880
vt 0.3839 0.3700
vt 0.6167 0.3687
vt 0.6167 0.3891
vt 0.3839 0.3891
vt 0.3839 0.2561
vt 0.6167 0.2561
vt 0.6167 0.2782
vt 0.3839 0.2773
vt 0.3839 0.2773
vt 0.6167 0.2782
vt 0.6167 0.3687
vt 0.3839 0.3700
vt 0.6167 0.3891
vt 0.3839 0.3891
vt 0.6167 0.2561
vt 0.3839 0.2561
vt 0.6250 0.9916
vt 0.6125 1.0000
vt 0.6125 0.7500
vt 0.6250 0.7584
vt 0.6125 0.0000
vt 0.6334 0.0084
vt 0.6334 0.2416
vt 0.6125 0.2500
vt 0.6250 0.2584
vt 0.6250 0.4916
vt 0.6125 0.5000
vt 0.6250 0.5084
vt 0.6250 0.7416
vt 0.3750 0.0000
vt 0.3750 0.2500
vt 0.3750 0.5000
vt 0.3750 0.7500
vt 0.3750 1.0000
vt 0.8666 0.0084
vt 0.8666 0.2416
vt 0.3875 0.6884
vt 0.4125 0.6884
vt 0.4125 0.3125
vt 0.3875 0.3125
vt 0.4375 0.6884
vt 0.4375 0.3125
vt 0.4625 0.6884
vt 0.4625 0.3125
vt 0.4875 0.6884
vt 0.4875 0.3125
vt 0.5125 0.6884
vt 0.5125 0.3125
vt 0.5375 0.6884
vt 0.5375 0.3125
vt 0.5625 0.6884
vt 0.5625 0.3125
vt 0.5875 0.6884
vt 0.5875 0.3125
vt 0.6125 0.6884
vt 0.6125 0.3125
vt 0.5483 0.0076
vt 0.5000 0.1500
vt 0.6264 0.0644
vt 0.4517 0.0076
vt 0.3736 0.0644
vt 0.3438 0.1562
vt 0.3736 0.2481
vt 0.4517 0.3049
vt 0.5483 0.3049
vt 0.6264 0.2481
vt 0.6562 0.1562
vt 0.6250 0.7500
vt 0.6250 1.0000
vt 0.3750 1.0000
vt 0.3750 0.7500
vt 0.6250 0.0880
vt 0.6250 0.2413
vt 0.3750 0.2413
vt 0.3750 0.0880
vt 0.1250 0.2413
vt 0.1250 0.0880
vt 0.6250 0.5087
vt 0.6250 0.6620
vt 0.3750 0.6620
vt 0.3750 0.5087
vt 0.8750 0.2413
vt 0.8750 0.0880
vt 0.6250 0.0000
vt 0.3750 0.0000
vt 0.8750 0.0000
vt 0.1250 0.0000
vt 0.3750 0.2500
vt 0.3839 0.2561
vt 0.3839 0.3891
vt 0.3750 0.5000
vt 0.6167 0.2561
vt 0.6167 0.3891
vt 0.6250 0.2500
vt 0.1250 0.2500
vt 0.6250 0.5000
vt 0.8750 0.2500
vn 0.0111 -0.0000 0.9999
vn -0.0111 0.0000 -0.9999
vn 0.9999 0.0000 -0.0111
vn -0.9999 0.0000 0.0111
vn 0.0000 1.0000 0.0000
vn -0.0017 -0.0000 1.0000
vn 0.9999 -0.0000 -0.0110
vn -0.0274 -0.0000 -0.9996
vn 0.7097 0.7044 -0.0118
vn 0.0157 0.7060 0.7081
vn -0.7042 0.7099 0.0140
vn -0.0102 0.7083 -0.7059
vn 0.0183 -0.0016 0.9998
vn -0.9998 0.0039 0.0183
vn -0.0183 0.0016 -0.9998
vn 0.9998 -0.0038 -0.0183
vn 0.0039 1.0000 0.0016
vn 0.5919 -0.5428 -0.5959
vn 0.2159 -0.2024 -0.9552
vn 0.2290 -0.2143 -0.9496
vn 0.5969 -0.5473 -0.5866
vn -0.2413 0.2143 -0.9465
vn -0.2283 0.2024 -0.9523
vn -0.6047 0.5475 -0.5784
vn -0.5996 0.5428 -0.5881
vn -0.7392 0.6735 0.0048
vn -0.5969 0.5473 0.5866
vn -0.5919 0.5428 0.5959
vn -0.2290 0.2143 0.9496
vn -0.2159 0.2024 0.9552
vn 0.2284 -0.2023 0.9523
vn 0.2414 -0.2142 0.9465
vn 0.5996 -0.5428 0.5881
vn 0.6045 -0.5473 0.5788
vn 0.7392 -0.6735 -0.0048
vn 0.6360 0.7717 -0.0042
vn 0.6360 0.7717 -0.0041
vn 0.0000 -1.0000 -0.0000
vn 0.0111 0.0085 0.9999
vn 0.0110 0.0677 0.9976
vn 0.0111 0.0677 0.9976
vn -0.9999 0.0056 0.0111
vn -0.9992 0.0394 0.0111
vn -0.0111 0.0677 -0.9976
vn -0.0111 0.0085 -0.9999
vn -0.0110 0.0677 -0.9976
vn 0.9992 0.0394 -0.0111
vn 0.9999 0.0056 -0.0111
vn 0.0106 0.4649 0.8853
vn 0.0113 0.4212 0.9069
vn 0.0114 0.4147 0.9099
vn 0.6318 0.7751 -0.0070
vn -0.0106 0.4625 -0.8865
vn -0.0114 0.4124 -0.9109
vn -0.0113 0.4190 -0.9079
vn -0.8584 0.5129 0.0095
vn 0.0097 0.4757 0.8796
vn -0.9430 0.3325 0.0104
vn -0.0097 0.4757 -0.8796
vn 0.9430 0.3325 -0.0104
vn -0.0157 0.0000 -0.9999
vn 0.0157 0.0000 0.9999
usemtl initialShadingGroup
s off
f 22/1/1 23/2/1 24/3/1 25/4/1
f 26/5/2 27/6/2 28/7/2 29/8/2
f 26/9/3 23/2/3 22/1/3 27/10/3
f 28/11/4 25/4/4 24/3/4 29/12/4
f 42/13/5 43/14/5 44/15/5 45/16/5
f 60/17/5 61/18/5 62/19/5 63/20/5
f 65/21/5 64/22/5 53/23/5 57/24/5
f 57/24/6 53/23/6 43/14/6 42/13/6
f 53/23/3 55/25/3 44/15/3 43/14/3
f 56/26/4 57/24/4 42/13/4 45/16/4
f 51/27/7 64/22/7 62/19/7 61/18/7
f 64/22/8 65/21/8 63/20/8 62/19/8
f 65/21/4 52/28/4 60/17/4 63/20/4
f 66/29/9 67/30/9 68/31/9 69/32/9
f 67/33/10 66/34/10 70/35/10 71/36/10
f 71/36/11 70/37/11 72/38/11 73/39/11
f 73/39/12 72/40/12 69/41/12 68/31/12
f 74/42/13 67/33/13 71/36/13 75/43/13
f 75/43/14 71/36/14 73/39/14 76/44/14
f 76/44/15 73/39/15 68/31/15 77/45/15
f 77/45/16 68/31/16 67/30/16 74/46/16
f 66/34/17 69/47/17 72/48/17 70/35/17
s 1
f 1/49/18 2/50/19 3/51/20 4/52/21
f 2/50/19 5/53/22 6/54/23 3/51/20
f 5/53/22 7/55/24 8/56/25 6/54/23
f 7/55/24 9/57/26 10/58/26 8/56/25
f 9/57/26 11/59/27 12/60/28 10/58/26
f 11/59/27 13/61/29 14/62/30 12/60/28
f 13/61/29 15/63/31 16/64/32 14/62/30
f 15/63/31 17/65/33 18/66/34 16/64/32
f 17/65/33 19/67/35 20/68/35 18/66/34
f 19/67/35 1/49/18 4/52/21 20/68/35
f 3/69/36 21/70/37 4/71/36
f 6/72/36 21/70/37 3/69/36
f 8/73/36 21/70/37 6/72/36
f 10/74/37 21/70/37 8/73/36
f 12/75/37 21/70/37 10/74/37
f 14/76/37 21/70/37 12/75/37
f 16/77/37 21/70/37 14/76/37
f 18/78/37 21/70/37 16/77/37
f 20/79/36 21/70/37 18/78/37
f 4/71/36 21/70/37 20/79/36
f 30/80/38 31/81/38 32/82/38 33/83/38
f 34/84/39 35/85/40 36/86/41 37/87/39
f 37/87/42 36/86/43 38/88/43 39/89/42
f 40/90/44 41/91/45 39/92/45 38/93/46
f 40/94/47 35/85/47 34/84/48 41/95/48
f 31/96/38 22/1/38 25/4/38 32/97/38
f 23/2/5 34/84/5 37/87/5 24/3/5
f 41/91/5 26/5/5 29/8/5 39/92/5
f 27/6/38 30/80/38 33/83/38 28/7/38
f 27/10/38 22/1/38 31/96/38 30/98/38
f 41/95/5 34/84/5 23/2/5 26/9/5
f 33/99/38 32/97/38 25/4/38 28/11/38
f 24/3/5 37/87/5 39/89/5 29/12/5
f 46/100/5 47/101/5 48/102/5 49/103/5
f 47/101/49 50/104/49 51/27/50 52/28/51
f 53/23/52 54/105/52 55/25/52
f 54/105/53 48/102/53 56/26/54 55/25/55
f 48/102/56 57/24/56 56/26/56
f 46/100/5 58/106/5 50/104/5 47/101/5
f 35/85/40 58/106/57 46/100/57 36/86/41
f 38/88/43 36/86/43 46/100/58 49/107/58
f 59/108/59 40/90/44 38/93/46 49/103/59
f 59/109/60 58/106/60 35/85/47 40/94/47
f 50/104/52 64/22/52 51/27/52
f 50/104/52 54/105/52 53/23/52 64/22/52
f 65/21/56 47/101/56 52/28/56
f 48/102/56 47/101/56 65/21/56 57/24/56
f 55/25/55 56/26/54 45/16/61 44/15/61
f 52/28/51 51/27/50 61/18/62 60/17/62
f 49/103/5 48/102/5 54/105/5 59/108/5
f 59/108/5 54/105/5 50/104/5 58/106/5
