# This file uses centimeters as units for non-parametric coordinates.

mtllib phoneBase_mesh.mtl
g default
v 0.141891 0.126656 0.018445
v 0.123546 0.141973 0.000695
v 0.100574 0.160906 0.000382
v 0.081752 0.176223 0.017625
v 0.074267 0.182074 0.045838
v 0.080980 0.176223 0.074245
v 0.099325 0.160906 0.091995
v 0.122296 0.141973 0.092308
v 0.141119 0.126656 0.075065
v 0.148604 0.120805 0.046852
v 0.135563 0.119710 0.018359
v 0.117218 0.135027 0.000609
v 0.094247 0.153960 0.000295
v 0.075424 0.169278 0.017539
v 0.067939 0.175128 0.045752
v 0.074652 0.169278 0.074159
v 0.092997 0.153960 0.091909
v 0.115968 0.135027 0.092222
v 0.134791 0.119710 0.074979
v 0.142276 0.113860 0.046766
v 0.111435 0.151440 0.046345
v -0.045631 0.004149 0.137910
v 0.163822 0.004149 0.139813
v -0.043970 0.104644 0.135413
v 0.162207 0.104644 0.137286
v -0.041097 0.104644 -0.180843
v 0.165080 0.104644 -0.178970
v -0.042712 0.004149 -0.183371
v 0.166741 0.004149 -0.181468
v 0.165918 0.033637 0.143093
v -0.047786 0.033637 0.141151
v -0.044807 0.033637 -0.186650
v 0.168896 0.033637 -0.184708
v -0.054366 0.004149 0.146489
v 0.172400 0.004149 0.148549
v 0.172400 0.033637 0.148549
v -0.054366 0.033637 0.146489
v -0.051290 0.033637 -0.192106
v 0.175477 0.033637 -0.190046
v 0.175477 0.004149 -0.190046
v -0.051290 0.004149 -0.192106
v -0.036539 0.104644 -0.040775
v 0.158503 0.104644 -0.039003
v 0.156951 0.104644 0.131855
v -0.038092 0.104644 0.130083
v 0.010031 0.184552 0.088694
v 0.059309 0.184552 0.088913
v 0.060102 0.184552 0.001700
v 0.010823 0.184552 0.001481
v 0.165582 0.094936 0.142567
v -0.047440 0.094936 0.140631
v -0.044471 0.094936 -0.186124
v 0.168550 0.094936 -0.184189
v 0.010157 0.184552 0.074822
v 0.059441 0.184552 0.074467
v 0.010710 0.184552 0.013999
v 0.059980 0.184552 0.015074
v 0.010709 0.224079 0.013999
v 0.059980 0.224079 0.015074
v 0.060102 0.224079 0.001700
v 0.010823 0.224079 0.001481
v 0.010031 0.224079 0.088694
v 0.059309 0.224079 0.088913
v 0.059441 0.224079 0.074467
v 0.010157 0.224079 0.074822
v 0.125894 0.090282 -0.048423
v 0.001236 0.090764 -0.048655
v 0.001469 0.090968 -0.173314
v 0.126127 0.090486 -0.173082
v 0.121796 0.112577 -0.052586
v 0.125964 0.108362 -0.048393
v 0.001306 0.108844 -0.048625
v 0.005522 0.113026 -0.052803
v 0.001539 0.109048 -0.173284
v 0.005739 0.113217 -0.169077
v 0.126197 0.108566 -0.173052
v 0.122013 0.112767 -0.168861
vt 0.269578 0.201205
vt 0.305308 0.201036
vt 0.291634 0.799044
vt 0.238125 0.725395
vt 0.341034 0.200528
vt 0.291634 0.890079
vt 0.376764 0.200360
vt 0.238125 0.963728
vt 0.412487 0.201079
vt 0.151546 0.991859
vt 0.254621 0.250491
vt 0.064966 0.963728
vt 0.290322 0.251943
vt 0.011457 0.890079
vt 0.326007 0.253735
vt 0.011457 0.799044
vt 0.361708 0.255187
vt 0.064966 0.725395
vt 0.397433 0.255753
vt 0.151546 0.697263
vt 0.151546 0.844561
vt 0.932131 0.588307
vt 0.931965 0.572753
vt 0.947836 0.709047
vt 0.931897 0.709914
vt 0.752029 0.570731
vt 0.751308 0.586619
vt 0.751138 0.708214
vt 0.751314 0.723768
vt 0.755489 0.591311
vt 0.928041 0.592792
vt 0.927722 0.705222
vt 0.755225 0.703729
vt 0.929208 0.569264
vt 0.928647 0.536973
vt 0.926120 0.761872
vt 0.950697 0.705737
vt 0.699178 0.702559
vt 0.754071 0.727256
vt 0.757502 0.534233
vt 0.732518 0.590796
vt 0.626218 0.372028
vt 0.610321 0.230032
vt 0.391255 0.731270
vt 0.054421 0.167860
vt 0.923029 0.767332
vt 0.209312 0.008712
vt 0.818013 0.259903
vt 0.985896 0.270243
vt 0.471146 0.030852
vt 0.521677 0.182625
vt 0.275944 0.119677
vt 0.610303 0.182591
vt 0.822672 0.025846
vt 0.391039 0.683830
vt 0.054425 0.120420
vt 0.286505 0.289172
vt 0.989939 0.596174
vt 0.990821 0.022825
vt 0.501712 0.469359
vt 0.521695 0.230065
vt 0.282845 0.548565
vt 0.142449 0.167868
vt 0.282846 0.428775
vt 0.142454 0.120428
vt 0.762636 0.278259
vt 0.688201 0.780174
vt 0.600818 0.830485
vt 0.336388 0.794312
vt 0.758026 0.484845
vt 0.660544 0.733287
vt 0.964611 0.489456
vt 0.481001 0.787758
vt 0.688117 0.758474
vt 0.660508 0.711587
vt 0.481086 0.766058
vt 0.600854 0.808785
vt 0.331385 0.787177
vt 0.331469 0.765477
vt 0.510927 0.733533
vt 0.510891 0.711834
vt 0.538585 0.780754
vt 0.538501 0.759054
vt 0.451236 0.808540
vt 0.451201 0.830240
vt 0.515970 0.740640
vt 0.475942 0.794854
vt 0.595775 0.837592
vt 0.969222 0.282870
vt 0.543644 0.787850
vt 0.655524 0.740411
vt 0.456220 0.837363
vt 0.683198 0.787309
vt 0.432208 0.548565
vt 0.535606 0.468998
vt 0.275647 0.167117
vt 0.159099 0.167870
vt 0.539034 0.230059
vt 0.536290 0.348580
vt 0.035471 0.310308
vt 0.432208 0.428776
vt 0.334791 0.167487
vt 0.500993 0.348955
vt 0.038500 0.194575
vt 0.539016 0.182618
vt 0.335088 0.120048
vt 0.159104 0.120430
vt 0.450400 0.731001
vt 0.595645 0.371091
vt 0.286505 0.408962
vt 0.069446 0.167862
vt 0.626373 0.230025
vt 0.591398 0.491422
vt 0.450184 0.683561
vt 0.435860 0.408962
vt 0.624062 0.492423
vt 0.626355 0.182585
vt 0.178016 0.195952
vt 0.435860 0.289172
vt 0.178346 0.311719
vt 0.069450 0.120421
vt 0.699807 0.590952
vt 0.754910 0.567253
vt 0.754385 0.760006
vt 0.731827 0.704218
vt 0.983411 0.705583
vt 0.606380 0.262688
vt 0.422320 0.235913
vt 0.989311 0.703817
vt 0.984079 0.593978
vt 0.216477 0.232723
vt 0.611305 0.015271
vt 0.925988 0.531447
vt 0.219083 0.011194
vt 0.417437 0.227463
vt 0.612979 0.255821
vt 0.617638 0.021765
vt 0.219221 0.225745
vt 0.453184 0.012152
vt 0.506761 0.574929
vt 0.004237 0.008693
vt 0.676221 0.030774
vt 0.272663 0.576497
vt 0.734723 0.707574
vt 0.750583 0.707956
vt 0.735376 0.587485
vt 0.750969 0.587350
vt 0.932241 0.709184
vt 0.931157 0.725800
vt 0.928273 0.729279
vt 0.932683 0.588566
vt 0.948539 0.588955
vt 0.951434 0.592311
vt 0.693908 0.592718
vt 0.760609 0.528790
vt 0.757082 0.765518
vt 0.693316 0.700364
vt 0.233456 0.211757
vt 0.397427 0.267031
vt 0.233855 0.200486
vt 0.218890 0.261203
vt 0.412087 0.212349
vt 0.218896 0.249925
vt 0.269178 0.212475
vt 0.361702 0.266465
vt 0.326001 0.265012
vt 0.290316 0.263221
vt 0.254616 0.261768
vt 0.376364 0.211630
vt 0.340634 0.211799
vt 0.304908 0.212306
vn 0.603806 -0.542841 -0.583731
vn 0.235140 -0.202404 -0.950654
vn 0.248132 -0.214314 -0.944722
vn 0.608661 -0.547381 -0.574374
vn -0.222269 0.214324 -0.951137
vn -0.209121 0.202415 -0.956712
vn -0.592768 0.547389 -0.590755
vn -0.587658 0.542848 -0.599978
vn -0.739113 0.673506 -0.010078
vn -0.739113 0.673506 -0.010080
vn -0.608654 0.547391 0.574372
vn -0.603799 0.542851 0.583730
vn -0.248123 0.214324 0.944722
vn -0.235130 0.202413 0.950654
vn 0.209124 -0.202408 0.956712
vn 0.222274 -0.214319 0.951137
vn 0.587661 -0.542847 0.599977
vn 0.592768 -0.547385 0.590759
vn 0.739118 -0.673501 0.010080
vn 0.739118 -0.673501 0.010078
vn 0.635925 0.771702 0.008672
vn 0.635925 0.771702 0.008672
vn 0.635926 0.771702 0.008672
vn 0.635924 0.771703 0.008672
vn 0.635924 0.771703 0.008671
vn 0.635924 0.771703 0.008672
vn 0.635924 0.771703 0.008672
vn 0.635924 0.771703 0.008672
vn 0.635925 0.771702 0.008672
vn 0.635926 0.771702 0.008672
vn 0.635925 0.771702 0.008672
vn -0.009085 0.000000 0.999959
vn -0.009085 0.000000 0.999959
vn -0.009085 0.000000 0.999959
vn -0.009085 0.000000 0.999959
vn 0.009085 0.000000 -0.999959
vn 0.009085 0.000000 -0.999959
vn 0.009085 0.000000 -0.999959
vn 0.009085 0.000000 -0.999959
vn 0.000000 -1.000000 0.000000
vn 0.000000 -1.000000 -0.000000
vn 0.000000 -1.000000 -0.000000
vn 0.000000 -1.000000 0.000000
vn 0.999959 0.000000 0.009084
vn 0.999959 0.000000 0.009084
vn 0.999959 0.000000 0.009084
vn 0.999959 0.000000 0.009084
vn -0.999959 0.000000 -0.009085
vn -0.999959 0.000000 -0.009085
vn -0.999959 0.000000 -0.009085
vn -0.999959 0.000000 -0.009085
vn -0.009084 0.008527 0.999922
vn -0.009064 0.067657 0.997668
vn -0.009064 0.067658 0.997667
vn -0.009084 0.008527 0.999922
vn -0.999943 0.005559 -0.009085
vn -0.999181 0.039429 -0.009078
vn -0.999181 0.039429 -0.009078
vn -0.999943 0.005559 -0.009085
vn 0.009064 0.067658 -0.997667
vn 0.009085 0.008527 -0.999922
vn 0.009085 0.008527 -0.999922
vn 0.009064 0.067659 -0.997667
vn 0.999181 0.039429 0.009078
vn 0.999181 0.039429 0.009078
vn 0.999943 0.005559 0.009085
vn 0.999943 0.005559 0.009085
vn 0.000000 -1.000000 -0.000000
vn 0.000000 -1.000000 -0.000000
vn 0.000000 1.000000 0.000000
vn 0.000000 1.000000 0.000000
vn 0.000000 1.000000 0.000000
vn 0.000000 1.000000 0.000000
vn 0.000000 1.000000 -0.000000
vn 0.000000 1.000000 -0.000000
vn 0.000000 1.000000 -0.000000
vn 0.000000 1.000000 -0.000000
vn 0.000000 -1.000000 0.000000
vn 0.000000 -1.000000 0.000000
vn 0.000000 1.000000 -0.000001
vn 0.000000 1.000000 -0.000001
vn 0.000000 1.000000 -0.000001
vn 0.000000 1.000000 -0.000001
vn 0.000008 1.000000 -0.000001
vn 0.000007 1.000000 -0.000001
vn 0.000001 1.000000 0.000001
vn 0.000000 1.000000 0.000001
vn -0.007214 0.464925 0.885321
vn -0.007214 0.464925 0.885321
vn -0.007001 0.421169 0.906955
vn -0.006969 0.414733 0.909916
vn 0.631807 0.775105 0.005740
vn 0.631807 0.775105 0.005740
vn 0.631808 0.775104 0.005741
vn 0.007224 0.462522 -0.886578
vn 0.007224 0.462522 -0.886579
vn 0.006976 0.412376 -0.910987
vn 0.007009 0.418977 -0.907970
vn -0.858407 0.512910 -0.007800
vn -0.858407 0.512910 -0.007800
vn -0.858407 0.512910 -0.007799
vn -0.000008 1.000000 -0.000001
vn -0.000008 1.000000 -0.000001
vn -0.007991 0.475697 0.879573
vn -0.007991 0.475697 0.879573
vn -0.943060 0.332511 -0.008568
vn -0.943060 0.332511 -0.008568
vn 0.007991 0.475706 -0.879568
vn 0.007991 0.475706 -0.879568
vn 0.943059 0.332514 0.008568
vn 0.943059 0.332514 0.008568
vn 0.000002 1.000000 -0.000001
vn 0.000002 1.000000 -0.000001
vn 0.000002 1.000000 -0.000001
vn 0.000002 1.000000 -0.000001
vn 0.631807 0.775105 0.005740
vn 0.631807 0.775104 0.005740
vn 0.631809 0.775103 0.005731
vn 0.000002 1.000000 0.000000
vn 0.000002 1.000000 0.000000
vn 0.000002 1.000000 0.000000
vn 0.000002 1.000000 0.000000
vn -0.858407 0.512910 -0.007799
vn -0.858407 0.512910 -0.007799
vn -0.858405 0.512914 -0.007792
vn -0.021812 -0.000002 0.999762
vn -0.021812 -0.000002 0.999762
vn -0.021812 -0.000002 0.999762
vn -0.021812 -0.000002 0.999762
vn 0.999959 -0.000001 0.009086
vn 0.999959 -0.000001 0.009086
vn 0.999959 -0.000001 0.009086
vn 0.999959 -0.000001 0.009086
vn 0.004438 0.000003 -0.999990
vn 0.004438 0.000003 -0.999990
vn -0.999959 -0.000000 -0.009084
vn -0.999959 -0.000000 -0.009084
vn -0.999959 -0.000000 -0.009084
vn -0.999959 -0.000000 -0.009084
vn -0.004441 0.000003 0.999990
vn -0.004441 0.000003 0.999990
vn 0.999959 -0.000002 0.009084
vn 0.999959 -0.000002 0.009084
vn 0.999959 -0.000002 0.009084
vn 0.999959 -0.000002 0.009084
vn -0.007212 -0.000004 -0.999974
vn -0.007212 -0.000004 -0.999974
vn -0.007212 -0.000004 -0.999974
vn -0.007212 -0.000004 -0.999974
vn -0.999959 0.000002 -0.009082
vn -0.999959 0.000002 -0.009082
vn -0.999959 0.000002 -0.009082
vn -0.999959 0.000002 -0.009082
vn -0.000001 1.000000 0.000001
vn -0.000000 1.000000 0.000001
vn 0.709840 0.704359 0.002480
vn 0.709840 0.704359 0.002480
vn 0.709840 0.704359 0.002480
vn 0.709840 0.704359 0.002480
vn 0.001407 0.705959 0.708252
vn 0.001407 0.705959 0.708252
vn 0.001407 0.705959 0.708252
vn 0.001407 0.705959 0.708252
vn -0.704364 0.709839 -0.000156
vn -0.704364 0.709839 -0.000156
vn -0.704364 0.709839 -0.000156
vn -0.704364 0.709839 -0.000156
vn 0.004052 0.708267 -0.705933
vn 0.004052 0.708267 -0.705933
vn 0.004052 0.708267 -0.705933
vn 0.004052 0.708267 -0.705933
vn -0.001870 -0.001640 0.999997
vn -0.001870 -0.001640 0.999997
vn -0.001870 -0.001640 0.999997
vn -0.001870 -0.001640 0.999997
vn -0.999991 0.003864 -0.001864
vn -0.999991 0.003864 -0.001864
vn -0.999991 0.003864 -0.001864
vn -0.999991 0.003864 -0.001864
vn 0.001870 0.001634 -0.999997
vn 0.001870 0.001634 -0.999997
vn 0.001870 0.001634 -0.999997
vn 0.001870 0.001634 -0.999997
vn 0.999991 -0.003864 0.001864
vn 0.999991 -0.003864 0.001864
vn 0.999991 -0.003864 0.001864
vn 0.999991 -0.003864 0.001864
vn 0.003861 0.999991 0.001644
vn 0.003861 0.999991 0.001644
vn 0.003861 0.999991 0.001644
vn 0.003861 0.999991 0.001644
s 1
g phoneBase_mesh
usemtl initialShadingGroup
f 11/1/1 12/2/2 2/171/3 1/164/4
f 12/2/2 13/5/5 3/170/6 2/171/3
f 13/5/5 14/7/7 4/169/8 3/170/6
f 14/7/7 15/9/9 5/162/10 4/169/8
f 15/163/9 16/11/11 6/168/12 5/161/10
f 16/11/11 17/13/13 7/167/14 6/168/12
f 17/13/13 18/15/15 8/166/16 7/167/14
f 18/15/15 19/17/17 9/165/18 8/166/16
f 19/17/17 20/19/19 10/159/20 9/165/18
f 20/160/19 11/1/1 1/164/4 10/158/20
s 2
f 2/3/21 21/21/22 1/4/23
f 3/6/24 21/21/22 2/3/21
f 4/8/25 21/21/22 3/6/24
f 5/10/26 21/21/22 4/8/25
f 6/12/27 21/21/22 5/10/26
f 7/14/28 21/21/22 6/12/27
f 8/16/29 21/21/22 7/14/28
f 9/18/30 21/21/22 8/16/29
f 10/20/31 21/21/22 9/18/30
f 1/4/23 21/21/22 10/20/31
s off
f 35/151/32 36/152/33 37/24/34 34/148/35
f 39/146/36 40/147/37 41/145/38 38/144/39
s 3
f 29/30/40 23/31/41 22/32/42 28/33/43
s off
f 39/26/44 36/23/45 35/22/46 40/27/47
f 41/28/48 34/25/49 37/149/50 38/29/51
s 4
f 30/153/52 50/130/53 51/126/54 31/37/55
s 5
f 31/150/56 51/36/57 52/124/58 32/39/59
s 6
f 53/122/60 33/41/61 32/125/62 52/38/63
s 7
f 53/40/64 50/35/65 30/34/66 33/123/67
s 3
f 23/31/41 35/151/68 34/148/69 22/32/42
s 8
f 36/152/70 30/153/71 31/37/72 37/24/73
f 33/41/74 39/146/75 38/144/76 32/125/77
s 3
f 40/147/78 29/30/40 28/33/43 41/145/79
f 40/27/78 35/22/68 23/31/41 29/30/40
s 8
f 33/123/74 30/34/71 36/23/70 39/26/75
s 3
f 28/33/43 22/32/42 34/25/69 41/28/79
s 8
f 37/149/73 31/150/72 32/39/77 38/29/76
s off
f 58/42/80 59/116/81 60/113/82 61/109/83
s 9
f 24/127/84 45/136/85 42/48/86 26/49/87
s 10
f 45/134/88 44/139/89 47/106/90 46/52/91
s 11
f 57/53/92 43/142/93 48/117/94
s 12
f 43/143/95 42/140/96 49/114/97 48/55/98
s 13
f 42/141/99 56/121/100 49/56/101
s 9
f 24/128/84 25/131/102 44/138/103 45/135/85
s 4
f 50/130/53 25/58/104 24/129/105 51/126/54
s 5
f 52/124/58 51/36/57 24/46/106 26/156/107
s 6
f 27/154/108 53/122/60 52/38/63 26/157/109
s 7
f 27/155/110 25/133/111 50/35/65 53/40/64
s off
f 62/60/112 63/103/113 64/99/114 65/95/115
s 11
f 44/50/116 55/105/117 47/51/118
s off
f 54/100/119 55/104/120 57/118/121 56/120/122
s 11
f 44/50/116 43/142/93 57/53/92 55/105/117
s 13
f 54/65/123 45/47/124 46/107/125
f 42/141/99 45/47/124 54/65/123 56/121/100
s off
f 56/57/126 57/119/127 59/115/128 58/110/129
f 57/53/130 48/117/131 60/112/132 59/43/133
s 12
f 48/55/98 49/114/97 61/108/134 60/44/135
s off
f 49/56/136 56/121/137 58/111/138 61/45/139
s 10
f 46/52/91 47/106/90 63/102/140 62/96/141
s off
f 47/51/142 55/105/143 64/98/144 63/61/145
f 55/64/146 54/101/147 65/94/148 64/62/149
f 54/65/150 46/107/151 62/97/152 65/63/153
s 9
f 26/49/87 42/48/86 43/54/154 27/59/155
f 27/59/155 43/54/154 44/137/103 25/132/102
s off
f 70/92/156 71/85/157 76/68/158 77/88/159
f 71/67/160 70/93/161 73/90/162 72/82/163
f 72/71/164 73/91/165 75/86/166 74/80/167
f 74/73/168 75/87/169 77/69/170 76/78/171
f 66/74/172 71/67/173 72/82/174 67/83/175
f 67/75/176 72/71/177 74/80/178 68/81/179
f 68/76/180 74/73/181 76/78/182 69/79/183
f 69/77/184 76/68/185 71/85/186 66/84/187
f 70/66/188 77/89/189 75/72/190 73/70/191
