# This file uses centimeters as units for non-parametric coordinates.

mtllib piggyBank_mesh.mtl
g default
v -0.087005 0.033677 0.072607
v 0.120927 0.061470 0.037187
v -0.087005 0.148433 0.072607
v 0.120927 0.120641 0.037187
v -0.086696 0.148433 -0.075432
v 0.121086 0.120641 -0.039145
v -0.086696 0.033677 -0.075432
v 0.121086 0.061470 -0.039145
v 0.131120 0.129323 -0.001511
v -0.106461 0.157307 -0.002526
v -0.106461 0.024803 -0.002526
v 0.131120 0.056894 -0.001511
v 0.147736 0.090860 -0.001838
v 0.134893 0.090935 0.045378
v -0.114157 0.090822 0.088379
v -0.137773 0.090777 -0.002821
v -0.113782 0.090822 -0.091318
v 0.135086 0.090935 -0.047278
v 0.059411 0.148433 -0.075127
v 0.059102 0.148433 0.072912
v 0.075456 0.157307 -0.002147
v 0.082243 0.133153 -0.055368
v 0.099648 0.090884 -0.066946
v 0.082243 0.048957 -0.055368
v 0.094701 0.042446 -0.001821
v 0.082016 0.048957 0.053248
v 0.099373 0.090884 0.064898
v 0.082016 0.133153 0.053248
v 0.094701 0.143771 -0.001821
v -0.010194 0.155523 0.081914
v -0.010915 0.165493 -0.002460
v -0.009847 0.155523 -0.084418
v -0.011051 0.090793 -0.102206
v -0.009847 0.026587 -0.084418
v -0.010915 0.016617 -0.002460
v -0.010194 0.026587 0.081914
v -0.011472 0.090793 0.099696
v 0.052543 0.149104 0.073764
v 0.067281 0.158082 -0.002176
v 0.052856 0.149104 -0.076007
v 0.073049 0.090819 -0.091979
v 0.052856 0.033006 -0.076007
v 0.067281 0.024029 -0.002176
v 0.052543 0.033006 0.073764
v 0.072669 0.090819 0.089820
v 0.069522 0.154087 0.025090
v 0.061933 0.154824 0.025381
v -0.099401 0.028024 0.024738
v -0.010653 0.020235 0.028158
v 0.061933 0.027286 0.025381
v 0.069825 0.154193 -0.027759
v 0.062219 0.154931 -0.028087
v -0.099525 0.027917 -0.028112
v -0.010540 0.020116 -0.031222
v 0.062219 0.027179 -0.028087
v 0.060757 0.183681 0.054046
v 0.067830 0.182977 0.053475
v 0.061083 0.183715 -0.056637
v 0.068164 0.183011 -0.056033
v 0.020982 0.029777 0.077864
v 0.030341 0.090806 0.094788
v 0.020982 0.152333 0.077864
v 0.027943 0.161810 -0.002319
v 0.021312 0.152333 -0.080238
v 0.030741 0.090806 -0.097124
v 0.021312 0.029777 -0.080238
v 0.025616 0.023626 -0.029664
v 0.027943 0.020300 -0.002319
v 0.025417 0.023739 0.026778
v -0.052985 0.030537 0.076729
v -0.068678 0.090809 0.093392
v -0.052985 0.151573 0.076729
v -0.064144 0.160933 -0.002497
v -0.052660 0.151573 -0.079412
v -0.068282 0.090809 -0.096140
v -0.052660 0.030537 -0.079412
v -0.060114 0.024462 -0.029490
v -0.064144 0.021178 -0.002497
v -0.060095 0.024574 0.026252
v -0.102865 -0.000971 0.024525
v -0.063559 0.000186 0.025809
v -0.056433 0.000559 0.068174
v -0.090454 -0.000907 0.064703
v -0.090186 -0.000887 -0.067682
v -0.056151 0.000579 -0.071010
v -0.063588 0.000094 -0.029116
v -0.102998 -0.001056 -0.027973
v 0.029448 -0.000729 -0.029068
v 0.066050 -0.001782 -0.027732
v 0.025127 -0.000167 -0.071514
v 0.056671 -0.001544 -0.067952
v 0.029242 -0.000635 0.026148
v 0.024825 -0.000187 0.069021
v 0.065758 -0.001694 0.024988
v 0.056384 -0.001564 0.065590
vt 0.375000 0.000000
vt 0.625000 0.000000
vt 0.375000 0.250000
vt 0.625000 0.250000
vt 0.375000 0.500000
vt 0.625000 0.500000
vt 0.375000 0.750000
vt 0.625000 0.750000
vt 0.375000 1.000000
vt 0.625000 1.000000
vt 0.875000 0.000000
vt 0.875000 0.250000
vt 0.125000 0.000000
vt 0.125000 0.250000
vt 0.625000 0.376812
vt 0.751812 0.250000
vt 0.248188 0.250000
vt 0.375000 0.376812
vt 0.248188 0.000000
vt 0.375000 0.873188
vt 0.625000 0.873188
vt 0.751812 0.000000
vt 0.751812 0.124483
vt 0.625000 0.124483
vt 0.375000 0.124483
vt 0.248188 0.124483
vt 0.125000 0.124483
vt 0.375000 0.625517
vt 0.625000 0.625517
vt 0.875000 0.124483
vt 0.603235 0.500000
vt 0.603235 0.250000
vt 0.603235 0.376812
vt 0.609196 0.500000
vt 0.609196 0.625517
vt 0.609196 0.750000
vt 0.609196 0.873188
vt 0.609196 0.000000
vt 0.609196 1.000000
vt 0.609196 0.124483
vt 0.609196 0.250000
vt 0.609196 0.376812
vt 0.494910 0.250000
vt 0.494910 0.376812
vt 0.494910 0.500000
vt 0.494910 0.625517
vt 0.494910 0.750000
vt 0.494910 0.873188
vt 0.494910 0.000000
vt 0.494910 1.000000
vt 0.494910 0.124483
vt 0.592982 0.250000
vt 0.592982 0.376812
vt 0.592982 0.500000
vt 0.592982 0.625517
vt 0.592982 0.750000
vt 0.592982 0.873188
vt 0.592982 0.000000
vt 0.592982 1.000000
vt 0.592982 0.124483
vt 0.603235 0.330795
vt 0.592982 0.330795
vt 0.294205 0.000000
vt 0.375000 0.919205
vt 0.494910 0.919205
vt 0.592982 0.919205
vt 0.603235 0.420044
vt 0.592982 0.420044
vt 0.204956 0.000000
vt 0.375000 0.829956
vt 0.494910 0.829956
vt 0.592982 0.829956
vt 0.592982 0.290397
vt 0.603235 0.290397
vt 0.592982 0.460022
vt 0.603235 0.460022
vt 0.543646 0.000000
vt 0.543646 1.000000
vt 0.543646 0.124483
vt 0.543646 0.250000
vt 0.543646 0.376812
vt 0.543646 0.500000
vt 0.543646 0.625517
vt 0.543646 0.750000
vt 0.543646 0.829956
vt 0.543646 0.873188
vt 0.543646 0.919205
vt 0.428108 0.000000
vt 0.428108 1.000000
vt 0.428108 0.124483
vt 0.428108 0.250000
vt 0.428108 0.376812
vt 0.428108 0.500000
vt 0.428108 0.625517
vt 0.428108 0.750000
vt 0.428108 0.829956
vt 0.428108 0.873188
vt 0.428108 0.919205
vt 0.375000 0.919205
vt 0.428108 0.919205
vt 0.428108 1.000000
vt 0.375000 1.000000
vt 0.375000 0.750000
vt 0.428108 0.750000
vt 0.428108 0.829956
vt 0.375000 0.829956
vt 0.592982 0.829956
vt 0.543646 0.829956
vt 0.543646 0.750000
vt 0.592982 0.750000
vt 0.543646 1.000000
vt 0.543646 0.919205
vt 0.592982 0.919205
vt 0.592982 1.000000
vn -0.662718 -0.440758 0.605423
vn -0.130344 -0.555645 0.821139
vn -0.126010 0.000021 0.992029
vn -0.847911 0.000365 0.530138
vn -0.727596 0.686005 -0.000973
vn -0.585651 0.666994 0.460577
vn -0.126106 0.793831 0.594920
vn -0.095241 0.995454 -0.000171
vn -0.839132 0.000366 -0.543928
vn -0.121869 0.000021 -0.992546
vn -0.126866 -0.553263 -0.823289
vn -0.652436 -0.439236 -0.617576
vn 0.035950 -0.999348 -0.003216
vn 0.035950 -0.999348 -0.003216
vn 0.035950 -0.999348 -0.003216
vn 0.035950 -0.999348 -0.003216
vn 0.794312 0.000668 0.607509
vn 0.583526 -0.677729 0.447415
vn 0.668137 -0.744033 0.002873
vn 0.999999 0.001484 0.000650
vn -0.818164 -0.519691 0.246027
vn -0.999997 -0.000021 -0.002397
vn -0.824502 -0.565858 -0.000867
vn -0.578869 0.664857 -0.472098
vn -0.123944 0.787054 -0.604305
vn -0.816118 -0.518004 -0.256172
vn -0.092366 -0.987235 -0.129755
vn -0.088653 -0.996061 0.001963
vn 0.582770 -0.674541 -0.453181
vn 0.790013 0.000675 -0.613090
vn 0.594085 0.647228 0.477660
vn 0.677000 0.735976 0.003230
vn 0.593055 0.643681 -0.483695
vn 0.554299 0.794852 0.246908
vn 0.595320 0.598212 0.536411
vn 0.467368 0.884062 0.001302
vn 0.549767 0.835318 0.000863
vn 0.559417 0.789613 -0.252121
vn 0.598721 0.592463 -0.539000
vn 0.581551 0.464256 -0.668031
vn 0.616115 -0.017038 -0.787472
vn 0.578409 -0.674897 -0.458211
vn 0.476426 -0.879214 0.001291
vn 0.575076 -0.680680 0.453831
vn 0.612824 -0.017038 0.790036
vn -0.011011 0.999939 -0.000128
vn -0.014076 0.793296 0.608674
vn 0.139378 0.740309 0.657659
vn 0.102671 0.994715 0.000461
vn -0.011532 0.786361 -0.617659
vn 0.142359 0.733340 -0.664791
vn -0.012993 -0.000034 -0.999916
vn 0.138651 -0.000003 -0.990341
vn -0.011667 -0.685113 -0.728344
vn 0.143309 -0.521807 -0.840940
vn -0.010270 -0.999946 0.001891
vn -0.010164 -0.991910 -0.126535
vn 0.102451 -0.986705 -0.126161
vn 0.097947 -0.995189 0.002263
vn -0.014716 -0.688082 0.725483
vn -0.010628 -0.992361 0.122909
vn 0.101563 -0.987187 0.123074
vn 0.139862 -0.524233 0.840011
vn -0.017165 -0.000034 0.999853
vn 0.134518 -0.000003 0.990911
vn 0.100541 0.986098 -0.132299
vn 0.099629 0.995024 0.001207
vn 0.450124 -0.023226 -0.892664
vn 0.145845 0.500669 -0.853264
vn 0.349084 -0.446033 -0.824133
vn 0.445003 -0.895529 0.000737
vn 0.471676 -0.858243 -0.202339
vn 0.347410 -0.450906 0.822186
vn 0.466530 -0.862056 0.198015
vn 0.446396 -0.023226 0.894534
vn 0.578888 0.467100 0.668361
vn 0.099715 0.986617 0.129013
vn -0.092561 -0.987734 0.125754
vn 0.035658 -0.999364 0.000830
vn 0.035658 -0.999364 0.000830
vn 0.035658 -0.999364 0.000830
vn 0.035658 -0.999364 0.000830
vn 0.142351 0.502982 0.852494
vn 0.138093 0.462313 0.875898
vn 0.138093 0.462313 0.875898
vn 0.971294 -0.135342 0.195630
vn 0.971294 -0.135342 0.195630
vn 0.971294 -0.135342 0.195630
vn 0.027380 0.703221 -0.710444
vn 0.027380 0.703221 -0.710444
vn 0.027380 0.703221 -0.710444
vn 0.027380 0.703221 -0.710444
vn -0.975813 0.132745 -0.173686
vn -0.975813 0.132745 -0.173686
vn -0.975813 0.132745 -0.173686
vn -0.975490 0.134359 0.174260
vn -0.975490 0.134359 0.174260
vn -0.975490 0.134359 0.174260
vn 0.023932 0.702673 0.711110
vn 0.023932 0.702673 0.711110
vn 0.023932 0.702673 0.711110
vn 0.023932 0.702673 0.711110
vn 0.970817 -0.137096 -0.196772
vn 0.970817 -0.137096 -0.196772
vn 0.970817 -0.137096 -0.196772
vn 0.141489 0.454248 -0.879568
vn 0.141489 0.454248 -0.879568
vn -0.035362 -0.999367 -0.003796
vn -0.035362 -0.999367 -0.003796
vn -0.035362 -0.999367 -0.003796
vn -0.035362 -0.999367 -0.003796
vn -0.035687 -0.999362 0.001028
vn -0.035687 -0.999362 0.001028
vn -0.035687 -0.999362 0.001028
vn -0.035687 -0.999362 0.001028
vn 0.035803 0.007641 -0.999330
vn 0.035803 0.007641 -0.999330
vn 0.035803 0.007641 -0.999330
vn 0.035803 0.007641 -0.999330
vn 0.984376 -0.101301 -0.144020
vn 0.984376 -0.101301 -0.144020
vn 0.984376 -0.101301 -0.144020
vn 0.984376 -0.101301 -0.144020
vn -0.113509 -0.234039 0.965578
vn -0.113509 -0.234039 0.965578
vn -0.961314 0.070532 0.266272
vn -0.961314 0.070532 0.266272
vn -0.961314 0.070532 0.266272
vn -0.961314 0.070532 0.266272
vn -0.109482 -0.230224 -0.966959
vn -0.109482 -0.230224 -0.966959
vn 0.983129 -0.101466 0.152193
vn 0.983129 -0.101466 0.152193
vn 0.983129 -0.101466 0.152193
vn 0.983129 -0.101466 0.152193
vn 0.032118 0.005435 0.999469
vn 0.032118 0.005435 0.999469
vn 0.032118 0.005435 0.999469
vn 0.032118 0.005435 0.999469
vn -0.958137 0.070551 -0.277483
vn -0.958137 0.070551 -0.277483
vn -0.958137 0.070551 -0.277483
vn -0.958137 0.070551 -0.277483
vn -0.040178 0.012042 0.999120
vn -0.040178 0.012042 0.999120
vn -0.040178 0.012042 0.999120
vn -0.040178 0.012042 0.999120
vn -0.988705 -0.125025 0.082654
vn -0.988705 -0.125025 0.082654
vn -0.988705 -0.125025 0.082654
vn -0.988705 -0.125025 0.082654
vn 0.125959 -0.235798 -0.963605
vn 0.125959 -0.235798 -0.963605
vn 0.975343 0.090806 -0.201148
vn 0.975343 0.090806 -0.201148
vn 0.975343 0.090806 -0.201148
vn 0.975343 0.090806 -0.201148
vn -0.988580 -0.124754 -0.084533
vn -0.988580 -0.124754 -0.084533
vn -0.988580 -0.124754 -0.084533
vn -0.988580 -0.124754 -0.084533
vn -0.035468 0.014044 -0.999272
vn -0.035468 0.014044 -0.999272
vn -0.035468 0.014044 -0.999272
vn -0.035468 0.014044 -0.999272
vn 0.975634 0.090753 0.199756
vn 0.975634 0.090753 0.199756
vn 0.975634 0.090753 0.199756
vn 0.975634 0.090753 0.199756
vn 0.121937 -0.239463 0.963218
vn 0.121937 -0.239463 0.963218
s 1
g piggyBank_mesh
usemtl initialShadingGroup
f 1/1/1 70/88/2 71/90/3 15/25/4
f 10/18/5 3/3/6 72/91/7 73/92/8
f 17/28/9 75/94/10 76/95/11 7/7/12
s off
f 80/99/13 81/100/14 82/101/15 83/102/16
s 1
f 14/24/17 2/2/18 12/22/19 13/23/20
f 48/63/21 1/1/1 15/25/4 16/26/22 11/19/23
f 5/5/24 10/18/5 73/92/8 74/93/25
f 53/69/26 11/19/23 16/26/22 17/27/9 7/13/12
f 53/70/26 77/96/27 78/97/28 11/20/23
f 13/23/20 12/22/19 8/11/29 18/30/30
f 4/4/31 14/24/17 13/23/20 9/16/32
f 15/25/4 71/90/3 72/91/7 3/3/6
f 15/25/4 3/3/6 10/17/5 16/26/22
f 16/26/22 10/17/5 5/14/24 17/27/9
f 5/5/24 74/93/25 75/94/10 17/28/9
f 9/16/32 13/23/20 18/30/30 6/12/33
f 46/61/34 28/41/35 29/42/36 21/33/37
f 51/67/38 22/34/39 19/31/40
f 22/34/39 6/6/33 18/29/30 23/35/41
f 24/36/42 23/35/41 18/29/30 8/8/29
f 12/21/19 25/37/43 24/36/42 8/8/29
f 2/10/18 26/39/44 25/37/43 12/21/19
f 27/40/45 26/38/44 2/2/18 14/24/17
f 28/41/35 27/40/45 14/24/17 4/4/31
f 28/41/35 4/4/31 9/15/32 29/42/36
f 29/42/36 9/15/32 6/6/33 22/34/39
f 31/44/46 30/43/47 62/80/48 63/81/49
f 32/45/50 31/44/46 63/81/49 64/82/51
f 33/46/52 32/45/50 64/82/51 65/83/53
f 34/47/54 33/46/52 65/83/53 66/84/55
f 35/48/56 54/71/57 67/85/58 68/86/59
f 36/50/60 49/65/61 69/87/62 60/78/63
f 37/51/64 36/49/60 60/77/63 61/79/65
f 30/43/47 37/51/64 61/79/65 62/80/48
f 52/68/66 39/53/67 21/33/37 51/67/38
f 41/55/68 40/54/69 19/31/40
f 24/36/42 42/56/70 41/55/68 23/35/41
f 25/37/43 43/57/71 55/72/72 42/56/70 24/36/42
f 26/39/44 44/59/73 50/66/74 43/57/71 25/37/43
f 45/60/75 44/58/73 26/38/44 27/40/45
f 20/32/76 45/60/75 27/40/45 28/41/35
f 47/62/77 46/61/34 21/33/37 39/53/67
f 11/20/23 78/97/28 79/98/78 48/64/21
f 69/87/62 49/65/61 35/48/56 68/86/59
s off
f 84/103/79 85/104/80 86/105/81 87/106/82
s 1
f 67/85/58 54/71/57 34/47/54 66/84/55
f 38/52/83 20/32/76 57/74/84 56/73/85
s off
f 20/32/86 46/61/87 57/74/88
f 46/61/89 47/62/90 56/73/91 57/74/92
f 47/62/93 38/52/94 56/73/95
f 40/54/96 52/68/97 58/75/98
f 52/68/99 51/67/100 59/76/101 58/75/102
f 51/67/103 19/31/104 59/76/105
s 1
f 19/31/40 40/54/69 58/75/106 59/76/107
f 61/79/65 60/77/63 44/58/73 45/60/75
f 62/80/48 61/79/65 45/60/75 38/52/83
f 62/80/48 38/52/83 47/62/77
f 63/81/49 39/53/67 52/68/66 64/82/51
f 65/83/53 64/82/51 40/54/69 41/55/68
f 66/84/55 65/83/53 41/55/68 42/56/70
s off
f 89/107/108 88/108/109 90/109/110 91/110/111
s 1
f 68/86/59 67/85/58 55/72/72 43/57/71
f 50/66/74 69/87/62 68/86/59 43/57/71
s off
f 93/111/112 92/112/113 94/113/114 95/114/115
s 1
f 70/88/2 36/49/60 37/51/64 71/90/3
f 72/91/7 71/90/3 37/51/64 30/43/47
f 72/91/7 30/43/47 31/44/46 73/92/8
f 73/92/8 31/44/46 32/45/50 74/93/25
f 75/94/10 74/93/25 32/45/50 33/46/52
f 76/95/11 75/94/10 33/46/52 34/47/54
f 77/96/27 76/95/11 34/47/54 54/71/57
f 78/97/28 77/96/27 54/71/57 35/48/56
f 79/98/78 78/97/28 35/48/56 49/65/61
f 70/89/2 79/98/78 49/65/61 36/50/60
s off
f 48/64/116 79/98/117 81/100/118 80/99/119
f 79/98/120 70/89/121 82/101/122 81/100/123
s 1
f 70/89/2 1/9/1 83/102/124 82/101/125
s off
f 1/9/126 48/64/127 80/99/128 83/102/129
s 1
f 7/7/12 76/95/11 85/104/130 84/103/131
s off
f 76/95/132 77/96/133 86/105/134 85/104/135
f 77/96/136 53/70/137 87/106/138 86/105/139
f 53/70/140 7/7/141 84/103/142 87/106/143
f 55/72/144 67/85/145 88/108/146 89/107/147
f 67/85/148 66/84/149 90/109/150 88/108/151
s 1
f 66/84/55 42/56/70 91/110/152 90/109/153
s off
f 42/56/154 55/72/155 89/107/156 91/110/157
f 60/78/158 69/87/159 92/112/160 93/111/161
f 69/87/162 50/66/163 94/113/164 92/112/165
f 50/66/166 44/59/167 95/114/168 94/113/169
s 1
f 44/59/73 60/78/63 93/111/170 95/114/171
f 38/52/83 45/60/75 20/32/76
f 23/35/41 41/55/68 19/31/40 22/34/39
f 51/67/38 21/33/37 29/42/36 22/34/39
f 46/61/34 20/32/76 28/41/35
f 64/82/51 52/68/66 40/54/69
f 62/80/48 47/62/77 39/53/67 63/81/49
