# This file uses centimeters as units for non-parametric coordinates.

mtllib piggyBank_mesh.mtl
g default
v -0.087005 0.033677 0.072607
v 0.120927 0.061470 0.037187
v -0.087005 0.148433 0.072607
v 0.120927 0.120641 0.037187
v -0.086696 0.148433 -0.075432
v 0.121086 0.120641 -0.039145
v -0.086696 0.033677 -0.075432
v 0.121086 0.061470 -0.039145
v 0.131120 0.129323 -0.001511
v -0.106461 0.157307 -0.002526
v -0.106461 0.024803 -0.002526
v 0.131120 0.056894 -0.001511
v 0.147736 0.090860 -0.001838
v 0.134893 0.090935 0.045378
v -0.114157 0.090822 0.088379
v -0.137773 0.090777 -0.002821
v -0.113782 0.090822 -0.091318
v 0.135086 0.090935 -0.047278
v 0.059411 0.148433 -0.075127
v 0.059102 0.148433 0.072912
v 0.075456 0.157307 -0.002147
v 0.082243 0.133153 -0.055368
v 0.099648 0.090884 -0.066946
v 0.082243 0.048957 -0.055368
v 0.094701 0.042446 -0.001821
v 0.082016 0.048957 0.053248
v 0.099373 0.090884 0.064898
v 0.082016 0.133153 0.053248
v 0.094701 0.143771 -0.001821
v -0.010194 0.155523 0.081914
v -0.010915 0.165493 -0.002460
v -0.009847 0.155523 -0.084418
v -0.011051 0.090793 -0.102206
v -0.009847 0.026587 -0.084418
v -0.010915 0.016617 -0.002460
v -0.010194 0.026587 0.081914
v -0.011472 0.090793 0.099696
v 0.052543 0.149104 0.073764
v 0.067281 0.158082 -0.002176
v 0.052856 0.149104 -0.076007
v 0.073049 0.090819 -0.091979
v 0.052856 0.033006 -0.076007
v 0.067281 0.024029 -0.002176
v 0.052543 0.033006 0.073764
v 0.072669 0.090819 0.089820
v 0.069522 0.154087 0.025090
v 0.061933 0.154824 0.025381
v -0.099401 0.028024 0.024738
v -0.010653 0.020235 0.028158
v 0.061933 0.027286 0.025381
v 0.069825 0.154193 -0.027759
v 0.062219 0.154931 -0.028087
v -0.099525 0.027917 -0.028112
v -0.010540 0.020116 -0.031222
v 0.062219 0.027179 -0.028087
v 0.060757 0.183681 0.054046
v 0.067830 0.182977 0.053475
v 0.061083 0.183715 -0.056637
v 0.068164 0.183011 -0.056033
v 0.020982 0.029777 0.077864
v 0.030341 0.090806 0.094788
v 0.020982 0.152333 0.077864
v 0.027943 0.161810 -0.002319
v 0.021312 0.152333 -0.080238
v 0.030741 0.090806 -0.097124
v 0.021312 0.029777 -0.080238
v 0.025616 0.023626 -0.029664
v 0.027943 0.020300 -0.002319
v 0.025417 0.023739 0.026778
v -0.052985 0.030537 0.076729
v -0.068678 0.090809 0.093392
v -0.052985 0.151573 0.076729
v -0.064144 0.160933 -0.002497
v -0.052660 0.151573 -0.079412
v -0.068282 0.090809 -0.096140
v -0.052660 0.030537 -0.079412
v -0.060114 0.024462 -0.029490
v -0.064144 0.021178 -0.002497
v -0.060095 0.024574 0.026252
v -0.102865 -0.000971 0.024525
v -0.063559 0.000186 0.025809
v -0.056433 0.000559 0.068174
v -0.090454 -0.000907 0.064703
v -0.090186 -0.000887 -0.067682
v -0.056151 0.000579 -0.071010
v -0.063588 0.000094 -0.029116
v -0.102998 -0.001056 -0.027973
v 0.029448 -0.000729 -0.029068
v 0.066050 -0.001782 -0.027732
v 0.025127 -0.000167 -0.071514
v 0.056671 -0.001544 -0.067952
v 0.029242 -0.000635 0.026148
v 0.024825 -0.000187 0.069021
v 0.065758 -0.001694 0.024988
v 0.056384 -0.001564 0.065590
vt 0.875402 0.687008
vt 0.117750 0.842715
vt 0.406904 0.321450
vt 0.975377 0.481236
vt 0.632166 0.343032
vt 0.956752 0.594835
vt 0.497198 0.265854
vt 0.623986 0.271210
vt 0.670068 0.482141
vt 0.856055 0.275946
vt 0.499118 0.798823
vt 0.502055 0.975584
vt 0.095541 0.038068
vt 0.369399 0.810308
vt 0.110279 0.790538
vt 0.861000 0.628867
vt 0.545166 0.747335
vt 0.590179 0.780691
vt 0.149240 0.632606
vt 0.467000 0.494068
vt 0.869631 0.365250
vt 0.821223 0.482637
vt 0.820938 0.361541
vt 0.689771 0.592624
vt 0.749247 0.248127
vt 0.774834 0.365406
vt 0.863592 0.751090
vt 0.155058 0.290561
vt 0.213212 0.620123
vt 0.360787 0.746595
vt 0.371766 0.571513
vt 0.465568 0.587316
vt 0.388146 0.699046
vt 0.499753 0.597130
vt 0.551768 0.633282
vt 0.453088 0.642463
vt 0.615789 0.027891
vt 0.409610 0.596414
vt 0.357716 0.631312
vt 0.331332 0.580660
vt 0.311069 0.698699
vt 0.240631 0.550761
vt 0.150537 0.566635
vt 0.657640 0.753086
vt 0.596491 0.702065
vt 0.620459 0.177351
vt 0.484898 0.187285
vt 0.475389 0.127364
vt 0.612975 0.108601
vt 0.750608 0.173359
vt 0.749574 0.119510
vt 0.856259 0.182380
vt 0.857924 0.112733
vt 0.292828 0.383848
vt 0.695960 0.942536
vt 0.154066 0.380283
vt 0.202631 0.381510
vt 0.698822 0.840943
vt 0.153199 0.445742
vt 0.284408 0.267589
vt 0.102215 0.380283
vt 0.942739 0.787889
vt 0.974805 0.678606
vt 0.387244 0.231963
vt 0.366246 0.175666
vt 0.661461 0.049774
vt 0.615280 0.041736
vt 0.865175 0.042111
vt 0.753678 0.066895
vt 0.814163 0.844338
vt 0.153231 0.512267
vt 0.225494 0.844098
vt 0.955819 0.902300
vt 0.107821 0.186025
vt 0.642880 0.661566
vt 0.401524 0.098018
vt 0.561694 0.046652
vt 0.367839 0.851681
vt 0.221154 0.044849
vt 0.484230 0.748359
vt 0.857736 0.710138
vt 0.238499 0.137331
vt 0.463770 0.060370
vt 0.565924 0.974090
vt 0.260691 0.973876
vt 0.298405 0.967329
vt 0.846904 0.912096
vt 0.135140 0.687179
vt 0.700344 0.799527
vt 0.687662 0.890387
vt 0.799566 0.786178
vt 0.770020 0.699722
vt 0.936277 0.746920
vt 0.109733 0.136934
vt 0.963904 0.842802
vt 0.881274 0.853434
vt 0.216830 0.907588
vt 0.759127 0.055584
vt 0.265649 0.657234
vt 0.531007 0.915499
vt 0.579417 0.583323
vt 0.323715 0.148160
vt 0.959421 0.627996
vt 0.910544 0.844823
vt 0.039706 0.137282
vt 0.766103 0.646468
vt 0.874882 0.745144
vt 0.698460 0.628353
vt 0.251259 0.187432
vt 0.719640 0.732629
vt 0.023512 0.493195
vt 0.024979 0.195492
vt 0.886994 0.627106
vt 0.698274 0.689773
vt 0.106287 0.504591
vt 0.881329 0.793847
vt 0.016671 0.433207
vt 0.270642 0.229257
vt 0.902315 0.897076
vt 0.103557 0.441599
vt 0.888621 0.668549
vt 0.634303 0.888364
vt 0.069745 0.710427
vt 0.231951 0.795428
vt 0.730164 0.785624
vt 0.628647 0.800613
vt 0.069746 0.763825
vt 0.269113 0.489302
vt 0.187091 0.727242
vt 0.964065 0.079802
vt 0.642457 0.947770
vt 0.170399 0.797194
vt 0.139811 0.748579
vt 0.965010 0.131730
vt 0.285669 0.436792
vt 0.613515 0.851203
vt 0.193898 0.504207
vt 0.732095 0.834682
vt 0.199428 0.442712
vt 0.163926 0.838129
vt 0.509308 0.916211
vt 0.168381 0.137724
vt 0.791478 0.708205
vt 0.153466 0.026545
vt 0.412728 0.747399
vt 0.158558 0.092635
vt 0.199395 0.230648
vt 0.797321 0.756895
vt 0.236685 0.186337
vt 0.451828 0.918407
vt 0.229482 0.101765
vt 0.201094 0.297453
vt 0.414279 0.788738
vt 0.286038 0.310951
vt 0.962392 0.254940
vt 0.444449 0.970502
vt 0.956090 0.312447
vt 0.690306 0.372035
vt 0.154274 0.195851
vt 0.426292 0.922883
vt 0.790333 0.628610
vt 0.052799 0.788356
vt 0.026535 0.053301
vt 0.297207 0.811069
vt 0.016022 0.109854
vt 0.954549 0.371191
vt 0.310494 0.377091
vt 0.060145 0.847802
vt 0.360202 0.924825
vt 0.087960 0.103750
vt 0.300447 0.325252
vt 0.019961 0.307462
vt 0.282162 0.861586
vt 0.105987 0.296534
vt 0.354358 0.965813
vt 0.792289 0.677645
vt 0.420462 0.971609
vt 0.109233 0.229917
vt 0.968301 0.183291
vt 0.011007 0.380044
vt 0.310266 0.965500
vt 0.197180 0.972675
vt 0.763610 0.968200
vt 0.209091 0.974141
vt 0.659142 0.036745
vt 0.311496 0.897608
vt 0.799781 0.863206
vt 0.227943 0.908732
vt 0.729135 0.909504
vt 0.811176 0.919385
vt 0.298737 0.899172
vt 0.260539 0.905493
vt 0.036239 0.923455
vt 0.378907 0.036167
vt 0.084012 0.972383
vt 0.613246 0.925089
vt 0.247813 0.903930
vt 0.566218 0.033856
vt 0.367026 0.037918
vt 0.248847 0.972044
vt 0.119054 0.913757
vt 0.453510 0.707870
vt 0.559443 0.572525
vt 0.155842 0.218957
vt 0.519578 0.699167
vt 0.453083 0.603406
vt 0.055864 0.550813
vt 0.248783 0.748884
vt 0.371494 0.415574
vt 0.082836 0.619460
vt 0.557506 0.416526
vt 0.315020 0.776866
vt 0.571620 0.493063
vt 0.854568 0.352712
vt 0.413652 0.396335
vt 0.505668 0.327429
vt 0.358207 0.494288
vt 0.466795 0.410101
vt 0.820158 0.603088
vt 0.751473 0.305705
vn -0.371736 -0.383910 0.845237
vn -0.130344 -0.555645 0.821139
vn -0.126010 0.000021 0.992029
vn -0.808037 0.113457 0.578103
vn -0.727596 0.686005 -0.000973
vn -0.585651 0.666994 0.460577
vn -0.126106 0.793831 0.594920
vn -0.095241 0.995454 -0.000171
vn -0.798380 0.112717 -0.591509
vn -0.121869 0.000021 -0.992546
vn -0.126866 -0.553263 -0.823289
vn -0.365159 -0.382195 -0.848873
vn 0.035950 -0.999348 -0.003216
vn 0.035950 -0.999348 -0.003216
vn 0.035950 -0.999348 -0.003216
vn 0.035950 -0.999348 -0.003216
vn 0.794312 0.000668 0.607509
vn 0.583526 -0.677729 0.447415
vn 0.668137 -0.744033 0.002873
vn 0.999999 0.001484 0.000650
vn -0.795986 -0.555838 0.239687
vn -0.996389 0.084890 -0.001919
vn -0.808491 -0.588508 0.000136
vn -0.578869 0.664857 -0.472098
vn -0.123944 0.787054 -0.604305
vn -0.794658 -0.553415 -0.249502
vn -0.092366 -0.987235 -0.129755
vn -0.088653 -0.996061 0.001963
vn 0.582770 -0.674541 -0.453181
vn 0.790013 0.000675 -0.613090
vn 0.594085 0.647228 0.477660
vn 0.677000 0.735976 0.003230
vn 0.593055 0.643681 -0.483695
vn 0.554299 0.794852 0.246908
vn 0.595320 0.598212 0.536411
vn 0.467368 0.884062 0.001302
vn 0.549767 0.835318 0.000863
vn 0.559417 0.789613 -0.252121
vn 0.598721 0.592463 -0.539000
vn 0.581551 0.464256 -0.668031
vn 0.616115 -0.017038 -0.787472
vn 0.578409 -0.674897 -0.458211
vn 0.476426 -0.879214 0.001291
vn 0.575076 -0.680680 0.453831
vn 0.612824 -0.017038 0.790036
vn -0.011011 0.999939 -0.000128
vn -0.014076 0.793296 0.608674
vn 0.139378 0.740309 0.657659
vn 0.102671 0.994715 0.000461
vn -0.011532 0.786361 -0.617659
vn 0.142359 0.733340 -0.664791
vn -0.012993 -0.000034 -0.999916
vn 0.138651 -0.000003 -0.990341
vn -0.011667 -0.685113 -0.728344
vn 0.143309 -0.521807 -0.840940
vn -0.010270 -0.999946 0.001891
vn -0.010164 -0.991910 -0.126535
vn 0.102451 -0.986705 -0.126161
vn 0.097947 -0.995189 0.002263
vn -0.014716 -0.688082 0.725483
vn -0.010628 -0.992361 0.122909
vn 0.101563 -0.987187 0.123074
vn 0.139862 -0.524233 0.840011
vn -0.017165 -0.000034 0.999853
vn 0.134518 -0.000003 0.990911
vn 0.100541 0.986098 -0.132299
vn 0.099629 0.995024 0.001207
vn 0.450124 -0.023226 -0.892664
vn 0.145845 0.500669 -0.853264
vn 0.349084 -0.446033 -0.824133
vn 0.445003 -0.895529 0.000737
vn 0.471676 -0.858243 -0.202339
vn 0.347410 -0.450906 0.822186
vn 0.466530 -0.862056 0.198015
vn 0.446396 -0.023226 0.894534
vn 0.578888 0.467100 0.668361
vn 0.099715 0.986617 0.129013
vn -0.092561 -0.987734 0.125754
vn 0.035658 -0.999364 0.000830
vn 0.035658 -0.999364 0.000830
vn 0.035658 -0.999364 0.000830
vn 0.035658 -0.999364 0.000830
vn 0.142351 0.502982 0.852494
vn 0.138093 0.462313 0.875898
vn 0.138093 0.462313 0.875898
vn 0.971294 -0.135342 0.195630
vn 0.971294 -0.135342 0.195630
vn 0.971294 -0.135342 0.195630
vn 0.027380 0.703221 -0.710444
vn 0.027380 0.703221 -0.710444
vn 0.027380 0.703221 -0.710444
vn 0.027380 0.703221 -0.710444
vn -0.975813 0.132745 -0.173686
vn -0.975813 0.132745 -0.173686
vn -0.975813 0.132745 -0.173686
vn -0.975490 0.134359 0.174260
vn -0.975490 0.134359 0.174260
vn -0.975490 0.134359 0.174260
vn 0.023932 0.702673 0.711110
vn 0.023932 0.702673 0.711110
vn 0.023932 0.702673 0.711110
vn 0.023932 0.702673 0.711110
vn 0.970817 -0.137096 -0.196772
vn 0.970817 -0.137096 -0.196772
vn 0.970817 -0.137096 -0.196772
vn 0.141489 0.454248 -0.879568
vn 0.141489 0.454248 -0.879568
vn -0.035362 -0.999367 -0.003796
vn -0.035362 -0.999367 -0.003796
vn -0.035362 -0.999367 -0.003796
vn -0.035362 -0.999367 -0.003796
vn -0.035687 -0.999362 0.001028
vn -0.035687 -0.999362 0.001028
vn -0.035687 -0.999362 0.001028
vn -0.035687 -0.999362 0.001028
vn 0.035803 0.007641 -0.999330
vn 0.035803 0.007641 -0.999330
vn 0.035803 0.007641 -0.999330
vn 0.035803 0.007641 -0.999330
vn 0.984376 -0.101301 -0.144020
vn 0.984376 -0.101301 -0.144020
vn 0.984376 -0.101301 -0.144020
vn 0.984376 -0.101301 -0.144020
vn -0.113509 -0.234039 0.965578
vn -0.113509 -0.234039 0.965578
vn -0.961314 0.070532 0.266272
vn -0.961314 0.070532 0.266272
vn -0.961314 0.070532 0.266272
vn -0.961314 0.070532 0.266272
vn -0.109482 -0.230224 -0.966959
vn -0.109482 -0.230224 -0.966959
vn 0.983129 -0.101466 0.152193
vn 0.983129 -0.101466 0.152193
vn 0.983129 -0.101466 0.152193
vn 0.983129 -0.101466 0.152193
vn 0.032118 0.005435 0.999469
vn 0.032118 0.005435 0.999469
vn 0.032118 0.005435 0.999469
vn 0.032118 0.005435 0.999469
vn -0.958137 0.070551 -0.277483
vn -0.958137 0.070551 -0.277483
vn -0.958137 0.070551 -0.277483
vn -0.958137 0.070551 -0.277483
vn -0.040178 0.012042 0.999120
vn -0.040178 0.012042 0.999120
vn -0.040178 0.012042 0.999120
vn -0.040178 0.012042 0.999120
vn -0.988705 -0.125025 0.082654
vn -0.988705 -0.125025 0.082654
vn -0.988705 -0.125025 0.082654
vn -0.988705 -0.125025 0.082654
vn 0.125959 -0.235798 -0.963605
vn 0.125959 -0.235798 -0.963605
vn 0.975343 0.090806 -0.201148
vn 0.975343 0.090806 -0.201148
vn 0.975343 0.090806 -0.201148
vn 0.975343 0.090806 -0.201148
vn -0.988580 -0.124754 -0.084533
vn -0.988580 -0.124754 -0.084533
vn -0.988580 -0.124754 -0.084533
vn -0.988580 -0.124754 -0.084533
vn -0.035468 0.014044 -0.999272
vn -0.035468 0.014044 -0.999272
vn -0.035468 0.014044 -0.999272
vn -0.035468 0.014044 -0.999272
vn 0.975634 0.090753 0.199756
vn 0.975634 0.090753 0.199756
vn 0.975634 0.090753 0.199756
vn 0.975634 0.090753 0.199756
vn 0.121937 -0.239463 0.963218
vn 0.121937 -0.239463 0.963218
s 1
g piggyBank_mesh
usemtl initialShadingGroup
f 1/167/1 70/171/2 71/3/3 15/215/4
f 10/5/5 3/216/6 72/7/7 73/8/8
f 17/214/9 75/10/10 76/155/11 7/157/12
s off
f 80/13/13 81/170/14 82/165/15 83/163/16
s 1
f 14/217/17 2/209/18 12/218/19 13/20/20
f 48/21/21 15/4/4 16/22/22 11/23/23
f 5/220/24 10/5/5 73/8/8 74/25/25
f 53/26/26 11/23/23 16/22/22 17/9/9
f 53/147/26 77/152/27 78/28/28 11/204/23
f 13/20/20 12/218/19 8/211/29 18/213/30
f 4/31/31 14/217/17 13/20/20 9/32/32
f 15/215/4 71/3/3 72/7/7 3/216/6
f 15/4/4 3/6/6 10/219/5 16/22/22
f 16/22/22 10/219/5 5/24/24 17/9/9
f 5/220/24 74/25/25 75/10/10 17/214/9
f 9/32/32 13/20/20 18/213/30 6/203/33
f 46/34/34 28/35/35 29/36/36 21/206/37
f 51/38/38 22/39/39 19/40/40
f 22/39/39 6/33/33 18/30/30 23/41/41
f 24/208/42 23/41/41 18/30/30 8/212/29
f 12/19/19 25/43/43 24/42/42 8/29/29
f 2/210/18 26/207/44 25/43/43 12/19/19
f 27/45/45 26/44/44 2/18/18 14/17/17
f 28/35/35 27/45/45 14/17/17 4/205/31
f 28/35/35 4/205/31 9/202/32 29/36/36
f 29/36/36 9/202/32 6/33/33 22/39/39
f 31/46/46 30/47/47 62/48/48 63/49/49
f 32/50/50 31/46/46 63/49/49 64/51/51
f 33/52/52 32/50/50 64/51/51 65/53/53
f 34/179/54 33/52/52 65/53/53 66/134/55
f 35/56/56 54/57/57 67/139/58 68/59/59
f 36/180/60 49/61/61 69/120/62 60/117/63
f 37/64/64 36/60/60 60/118/63 61/65/65
f 30/47/47 37/64/64 61/65/65 62/48/48
f 52/66/66 39/67/67 21/37/37 51/185/38
f 41/68/68 40/69/69 19/98/40
f 24/208/42 42/129/70 41/99/68 23/41/41
f 25/43/43 43/71/71 55/137/72 42/128/70 24/42/42
f 26/207/44 44/111/73 50/115/74 43/71/71 25/43/43
f 45/75/75 44/110/73 26/44/44 27/45/45
f 20/101/76 45/75/75 27/45/45 28/35/35
f 47/77/77 46/198/34 21/37/37 39/67/67
f 11/204/23 78/28/28 79/174/78 48/178/21
f 69/120/62 49/61/61 35/56/56 68/59/59
s off
f 84/79/79 85/151/80 86/146/81 87/144/82
s 1
f 67/139/58 54/57/57 34/54/54 66/135/55
f 38/83/83 20/76/76 57/199/84 56/194/85
s off
f 20/100/86 46/196/87 57/84/88
f 46/197/89 47/192/90 56/85/91 57/200/92
f 47/193/93 38/201/94 56/195/95
f 40/189/96 52/190/97 58/183/98
f 52/191/99 51/186/100 59/181/101 58/86/102
f 51/187/103 19/96/104 59/87/105
s 1
f 19/97/40 40/188/69 58/184/106 59/182/107
f 61/65/65 60/118/63 44/109/73 45/102/75
f 62/48/48 61/65/65 45/102/75 38/83/83
f 62/48/48 38/83/83 47/77/77
f 63/49/49 39/67/67 52/66/66 64/51/51
f 65/53/53 64/51/51 40/69/69 41/68/68
f 66/134/55 65/53/53 41/68/68 42/130/70
s off
f 89/88/108 88/133/109 90/127/110 91/123/111
s 1
f 68/59/59 67/139/58 55/137/72 43/71/71
f 50/115/74 69/120/62 68/59/59 43/71/71
s off
f 93/92/112 92/114/113 94/108/114 95/106/115
s 1
f 70/171/2 36/60/60 37/64/64 71/3/3
f 72/7/7 71/3/3 37/64/64 30/47/47
f 72/7/7 30/47/47 31/46/46 73/8/8
f 73/8/8 31/46/46 32/50/50 74/25/25
f 75/10/10 74/25/25 32/50/50 33/52/52
f 76/155/11 75/10/10 33/52/52 34/179/54
f 77/152/27 76/154/11 34/54/54 54/57/57
f 78/28/28 77/152/27 54/57/57 35/56/56
f 79/174/78 78/28/28 35/56/56 49/61/61
f 70/172/2 79/174/78 49/61/61 36/180/60
s off
f 48/177/116 79/175/117 81/169/118 80/160/119
f 79/78/120 70/173/121 82/164/122 81/14/123
s 1
f 70/2/2 1/168/1 83/162/124 82/15/125
s off
f 1/1/126 48/176/127 80/161/128 83/16/129
s 1
f 7/12/12 76/156/11 85/150/130 84/141/131
s off
f 76/11/132 77/153/133 86/145/134 85/80/135
f 77/27/136 53/148/137 87/143/138 86/81/139
f 53/149/140 7/159/141 84/142/142 87/82/143
f 55/72/144 67/140/145 88/132/146 89/124/147
f 67/58/148 66/136/149 90/126/150 88/89/151
s 1
f 66/55/55 42/131/70 91/122/152 90/90/153
s off
f 42/70/154 55/138/155 89/125/156 91/91/157
f 60/63/158 69/121/159 92/113/160 93/103/161
f 69/62/162 50/116/163 94/107/164 92/93/165
f 50/74/166 44/112/167 95/105/168 94/94/169
s 1
f 44/73/73 60/119/63 93/104/170 95/95/171
f 38/83/83 45/102/75 20/76/76
f 23/41/41 41/99/68 19/40/40 22/39/39
f 51/38/38 21/206/37 29/36/36 22/39/39
f 46/34/34 20/101/76 28/35/35
f 64/51/51 52/66/66 40/69/69
f 62/48/48 47/77/77 39/67/67 63/49/49
f 53/26/26 17/9/9 7/158/12
f 48/21/21 1/166/1 15/4/4
