# This file uses centimeters as units for non-parametric coordinates.

mtllib suitCase_mesh.mtl
g default
v -0.222576 0.013901 0.039404
v 0.240265 0.013901 0.039404
v -0.222576 0.371089 0.030521
v 0.240265 0.371089 0.030521
v -0.222576 0.369265 -0.042815
v 0.240265 0.369265 -0.042815
v -0.222576 0.012078 -0.033932
v 0.240265 0.012078 -0.033932
v 0.008596 0.395360 0.003282
v 0.061391 0.378173 0.002403
v 0.094020 0.353785 0.002201
v -0.076828 0.353890 0.006428
v -0.044199 0.378238 0.005015
v 0.008249 0.395011 -0.010738
v 0.061044 0.377825 -0.011617
v 0.093673 0.353436 -0.011819
v -0.077175 0.353542 -0.007592
v -0.044546 0.377890 -0.009005
v 0.008203 0.417176 -0.013128
v 0.060806 0.400052 -0.014004
v 0.109545 0.355046 -0.014092
v -0.093138 0.355171 -0.009077
v -0.044400 0.400116 -0.011402
v 0.008642 0.417616 0.004568
v 0.061245 0.400492 0.003691
v 0.109983 0.355486 0.003604
v -0.092700 0.355611 0.008618
v -0.043961 0.400556 0.006294
vt 0.845825 0.328330
vt 0.841774 0.147928
vt 0.010928 0.161541
vt 0.841774 0.147928
vt 0.011840 0.332771
vt 0.851808 0.984610
vt 0.845825 0.328330
vt 0.009955 0.018186
vt 0.925029 0.321963
vt 0.894391 0.218408
vt 0.888596 0.146628
vt 0.954914 0.260196
vt 0.889741 0.357861
vt 0.919585 0.402252
vt 0.942930 0.192634
vt 0.925970 0.085072
vt 0.966415 0.051082
vt 0.871391 0.980968
vt 0.974615 0.566098
vt 0.974350 0.692862
vt 0.974923 0.414096
vt 0.974164 0.819626
vt 0.923665 0.129213
vt 0.866236 0.211488
vt 0.860462 0.139965
vt 0.908209 0.286588
vt 0.897702 0.078630
vt 0.933394 0.971572
vt 0.933592 0.819568
vt 0.933778 0.692790
vt 0.968899 0.030331
vt 0.934044 0.566016
vt 0.934351 0.414012
vt 0.970261 0.196655
vt 0.982201 0.263973
vt 0.973966 0.971627
vt 0.952424 0.325517
vt 0.889262 0.377768
vt 0.872646 0.858427
vt 0.874366 0.691389
vt 0.918719 0.148502
vt 0.876105 0.524352
vt 0.877386 0.401811
vt 0.914845 0.858860
vt 0.916565 0.691826
vt 0.913590 0.981400
vt 0.918304 0.524792
vt 0.915296 0.266927
vt 0.021742 0.352372
vt 0.841453 0.016161
vt 0.848578 0.348259
vt 0.844913 0.157101
vt 0.848578 0.348259
vt 0.844913 0.157101
vt 0.021742 0.352372
vt 0.010275 0.149953
vt 0.009955 0.018186
vt 0.025350 0.988721
vt 0.841453 0.016161
vt 0.010928 0.161541
vt 0.851809 0.984610
vt 0.010275 0.149953
vt 0.025350 0.988721
vt 0.011840 0.332771
vn 0.000000 0.024860 0.999691
vn 0.000000 0.024860 0.999691
vn 0.000000 0.024860 0.999691
vn 0.000000 0.024860 0.999691
vn 0.000000 0.999691 -0.024859
vn 0.000000 0.999691 -0.024859
vn 0.000000 0.999691 -0.024859
vn 0.000000 0.999691 -0.024859
vn 0.000000 -0.024860 -0.999691
vn 0.000000 -0.024860 -0.999691
vn 0.000000 -0.024860 -0.999691
vn 0.000000 -0.024860 -0.999691
vn 0.000000 -0.999691 0.024859
vn 0.000000 -0.999691 0.024859
vn 0.000000 -0.999691 0.024859
vn 0.000000 -0.999691 0.024859
vn 1.000000 -0.000000 0.000000
vn 1.000000 -0.000000 0.000000
vn 1.000000 -0.000000 0.000000
vn 1.000000 -0.000000 0.000000
vn -1.000000 0.000000 0.000000
vn -1.000000 0.000000 0.000000
vn -1.000000 0.000000 0.000000
vn -1.000000 0.000000 0.000000
vn -0.437032 -0.898834 0.033173
vn -0.437032 -0.898834 0.033173
vn 0.000000 -0.999691 0.024861
vn 0.000000 -0.999691 0.024861
vn -0.598188 -0.800603 0.034719
vn -0.598188 -0.800603 0.034719
vn 0.437031 -0.899372 0.011547
vn 0.437032 -0.899372 0.011547
vn 0.598189 -0.801338 0.005119
vn 0.598189 -0.801338 0.005119
vn -0.063857 -0.110533 -0.991819
vn -0.081682 -0.115308 -0.989966
vn -0.024656 -0.107240 -0.993927
vn -0.024656 -0.107240 -0.993927
vn -0.107744 -0.122231 -0.986636
vn -0.107744 -0.122231 -0.986636
vn 0.014597 -0.110580 -0.993760
vn 0.032485 -0.115377 -0.992790
vn 0.058672 -0.122334 -0.990753
vn 0.058672 -0.122334 -0.990753
vn 0.522124 0.852187 -0.034118
vn 0.522124 0.852187 -0.034118
vn -0.000000 0.999691 -0.024861
vn -0.000000 0.999691 -0.024861
vn 0.677958 0.734265 -0.035042
vn 0.677958 0.734265 -0.035042
vn -0.522123 0.852830 -0.008281
vn -0.522123 0.852830 -0.008281
vn -0.677958 0.735099 -0.001495
vn -0.677958 0.735099 -0.001495
vn 0.024657 -0.057709 0.998029
vn -0.032487 -0.065890 0.997298
vn -0.014598 -0.061052 0.998028
vn 0.024657 -0.057709 0.998029
vn -0.058674 -0.072937 0.995609
vn -0.058674 -0.072937 0.995609
vn 0.107743 -0.073041 0.991492
vn 0.081682 -0.065962 0.994473
vn 0.063859 -0.061102 0.996087
vn 0.107743 -0.073041 0.991492
s off
g suitCase_mesh
usemtl initialShadingGroup
f 1/55/1 2/51/2 4/61/3 3/63/4
f 3/4/5 4/62/6 6/57/7 5/59/8
f 5/6/9 6/58/10 8/49/11 7/53/12
f 7/8/13 8/50/14 2/2/15 1/56/16
f 2/52/17 8/7/18 6/5/19 4/3/20
f 7/54/21 1/1/22 3/64/23 5/60/24
s 1
f 15/42/25 10/47/26 9/45/27 14/40/28
f 16/43/29 11/14/30 10/47/26 15/42/25
f 18/39/31 13/44/32 12/46/33 17/18/34
f 14/40/28 9/45/27 13/44/32 18/39/31
s 2
f 20/37/35 15/9/36 14/12/37 19/35/38
f 21/38/39 16/13/40 15/9/36 20/37/35
f 23/34/41 18/15/42 17/41/43 22/23/44
f 19/35/38 14/12/37 18/15/42 23/34/41
s 3
f 25/32/45 20/19/46 19/20/47 24/30/48
f 26/33/49 21/21/50 20/19/46 25/32/45
f 28/29/51 23/22/52 22/36/53 27/28/54
f 24/30/48 19/20/47 23/22/52 28/29/51
s 4
f 9/11/55 10/10/56 25/24/57 24/25/58
f 10/10/56 11/48/59 26/26/60 25/24/57
f 12/17/61 13/16/62 28/27/63 27/31/64
f 13/16/62 9/11/55 24/25/58 28/27/63
