# This file uses centimeters as units for non-parametric coordinates.

mtllib suitCase_mesh.mtl
g default
v -0.222576 0.013901 0.039404
v 0.240265 0.013901 0.039404
v -0.222576 0.371089 0.030521
v 0.240265 0.371089 0.030521
v -0.222576 0.369265 -0.042815
v 0.240265 0.369265 -0.042815
v -0.222576 0.012078 -0.033932
v 0.240265 0.012078 -0.033932
v 0.008596 0.395360 0.003282
v 0.061391 0.378173 0.002403
v 0.094020 0.353785 0.002201
v -0.076828 0.353890 0.006428
v -0.044199 0.378238 0.005015
v 0.008249 0.395011 -0.010738
v 0.061044 0.377825 -0.011617
v 0.093673 0.353436 -0.011819
v -0.077175 0.353542 -0.007592
v -0.044546 0.377890 -0.009005
v 0.008203 0.417176 -0.013128
v 0.060806 0.400052 -0.014004
v 0.109545 0.355046 -0.014092
v -0.093138 0.355171 -0.009077
v -0.044400 0.400116 -0.011402
v 0.008642 0.417616 0.004568
v 0.061245 0.400492 0.003691
v 0.109983 0.355486 0.003604
v -0.092700 0.355611 0.008618
v -0.043961 0.400556 0.006294
vt 0.375000 0.000000
vt 0.625000 0.000000
vt 0.375000 0.250000
vt 0.625000 0.250000
vt 0.375000 0.500000
vt 0.625000 0.500000
vt 0.375000 0.750000
vt 0.625000 0.750000
vt 0.375000 1.000000
vt 0.625000 1.000000
vt 0.875000 0.000000
vt 0.875000 0.250000
vt 0.125000 0.000000
vt 0.125000 0.250000
vt 0.100000 0.750000
vt 0.100000 1.000000
vt 0.000000 1.000000
vt 0.000000 0.750000
vt 0.200000 0.750000
vt 0.200000 1.000000
vt 0.900000 0.750000
vt 0.900000 1.000000
vt 0.800000 1.000000
vt 0.800000 0.750000
vt 1.000000 0.750000
vt 1.000000 1.000000
vt 0.100000 0.500000
vt 0.000000 0.500000
vt 0.200000 0.500000
vt 0.900000 0.500000
vt 0.800000 0.500000
vt 1.000000 0.500000
vt 0.100000 0.250000
vt 0.000000 0.250000
vt 0.200000 0.250000
vt 0.900000 0.250000
vt 0.800000 0.250000
vt 1.000000 0.250000
vt 0.000000 0.000000
vt 0.100000 0.000000
vt 0.200000 0.000000
vt 0.800000 0.000000
vt 0.900000 0.000000
vt 1.000000 0.000000
vn 0.000000 0.024860 0.999691
vn 0.000000 0.024860 0.999691
vn 0.000000 0.024860 0.999691
vn 0.000000 0.024860 0.999691
vn 0.000000 0.999691 -0.024859
vn 0.000000 0.999691 -0.024859
vn 0.000000 0.999691 -0.024859
vn 0.000000 0.999691 -0.024859
vn 0.000000 -0.024860 -0.999691
vn 0.000000 -0.024860 -0.999691
vn 0.000000 -0.024860 -0.999691
vn 0.000000 -0.024860 -0.999691
vn 0.000000 -0.999691 0.024859
vn 0.000000 -0.999691 0.024859
vn 0.000000 -0.999691 0.024859
vn 0.000000 -0.999691 0.024859
vn 1.000000 -0.000000 0.000000
vn 1.000000 -0.000000 0.000000
vn 1.000000 -0.000000 0.000000
vn 1.000000 -0.000000 0.000000
vn -1.000000 0.000000 0.000000
vn -1.000000 0.000000 0.000000
vn -1.000000 0.000000 0.000000
vn -1.000000 0.000000 0.000000
vn -0.437032 -0.898834 0.033173
vn -0.437032 -0.898834 0.033173
vn 0.000000 -0.999691 0.024861
vn 0.000000 -0.999691 0.024861
vn -0.598188 -0.800603 0.034719
vn -0.598188 -0.800603 0.034719
vn 0.437031 -0.899372 0.011547
vn 0.437032 -0.899372 0.011547
vn 0.598189 -0.801338 0.005119
vn 0.598189 -0.801338 0.005119
vn -0.063857 -0.110533 -0.991819
vn -0.081682 -0.115308 -0.989966
vn -0.024656 -0.107240 -0.993927
vn -0.024656 -0.107240 -0.993927
vn -0.107744 -0.122231 -0.986636
vn -0.107744 -0.122231 -0.986636
vn 0.014597 -0.110580 -0.993760
vn 0.032485 -0.115377 -0.992790
vn 0.058672 -0.122334 -0.990753
vn 0.058672 -0.122334 -0.990753
vn 0.522124 0.852187 -0.034118
vn 0.522124 0.852187 -0.034118
vn -0.000000 0.999691 -0.024861
vn -0.000000 0.999691 -0.024861
vn 0.677958 0.734265 -0.035042
vn 0.677958 0.734265 -0.035042
vn -0.522123 0.852830 -0.008281
vn -0.522123 0.852830 -0.008281
vn -0.677958 0.735099 -0.001495
vn -0.677958 0.735099 -0.001495
vn 0.024657 -0.057709 0.998029
vn -0.032487 -0.065890 0.997298
vn -0.014598 -0.061052 0.998028
vn 0.024657 -0.057709 0.998029
vn -0.058674 -0.072937 0.995609
vn -0.058674 -0.072937 0.995609
vn 0.107743 -0.073041 0.991492
vn 0.081682 -0.065962 0.994473
vn 0.063859 -0.061102 0.996087
vn 0.107743 -0.073041 0.991492
s off
g suitCase_mesh
usemtl initialShadingGroup
f 1/1/1 2/2/2 4/4/3 3/3/4
f 3/3/5 4/4/6 6/6/7 5/5/8
f 5/5/9 6/6/10 8/8/11 7/7/12
f 7/7/13 8/8/14 2/10/15 1/9/16
f 2/2/17 8/11/18 6/12/19 4/4/20
f 7/13/21 1/1/22 3/3/23 5/14/24
s 1
f 15/15/25 10/16/26 9/17/27 14/18/28
f 16/19/29 11/20/30 10/16/26 15/15/25
f 18/21/31 13/22/32 12/23/33 17/24/34
f 14/25/28 9/26/27 13/22/32 18/21/31
s 2
f 20/27/35 15/15/36 14/18/37 19/28/38
f 21/29/39 16/19/40 15/15/36 20/27/35
f 23/30/41 18/21/42 17/24/43 22/31/44
f 19/32/38 14/25/37 18/21/42 23/30/41
s 3
f 25/33/45 20/27/46 19/28/47 24/34/48
f 26/35/49 21/29/50 20/27/46 25/33/45
f 28/36/51 23/30/52 22/31/53 27/37/54
f 24/38/48 19/32/47 23/30/52 28/36/51
s 4
f 9/39/55 10/40/56 25/33/57 24/34/58
f 10/40/56 11/41/59 26/35/60 25/33/57
f 12/42/61 13/43/62 28/36/63 27/37/64
f 13/43/62 9/44/55 24/38/58 28/36/63
