# This file uses centimeters as units for non-parametric coordinates.

mtllib switchboard_mesh.mtl
g default
v 0.004721 1.481950 0.903756
v 0.004721 1.606609 0.903756
v 0.004721 1.606609 0.779097
v 0.004721 1.481950 0.779097
v 0.026993 1.486142 0.899564
v 0.022801 1.481950 0.903756
v 0.022801 1.606609 0.903756
v 0.026993 1.602417 0.899564
v 0.022801 1.606609 0.779097
v 0.026993 1.602417 0.783289
v 0.022801 1.481950 0.779097
v 0.026993 1.486142 0.783289
vt 0.012723 0.030343
vt 0.802388 0.009787
vt 0.889069 0.954335
vt 0.851282 0.035390
vt 0.012723 0.699795
vt 0.042048 0.750639
vt 0.682174 0.699795
vt 0.885416 0.728977
vt 0.698293 0.009787
vt 0.042048 0.842821
vt 0.989510 0.728977
vt 0.889069 0.862154
vt 0.885416 0.011255
vt 0.989510 0.011255
vt 0.677628 0.750639
vt 0.677628 0.842821
vt 0.802388 0.727509
vt 0.698293 0.727509
vt 0.253489 0.862154
vt 0.253489 0.954335
vt 0.656254 0.720413
vt 0.851282 0.704841
vt 0.867695 0.984561
vt 0.682174 0.030343
vt 0.836521 0.703373
vt 0.063422 0.720413
vt 0.274863 0.984561
vt 0.836521 0.033921
vn 0.707092 -0.707122 0.000000
vn 0.707092 -0.707122 0.000000
vn 0.707092 -0.707122 0.000000
vn 0.707092 -0.707122 0.000000
vn 0.707117 0.000000 0.707097
vn 0.707117 0.000000 0.707097
vn 0.707117 0.000000 0.707097
vn 0.707117 0.000000 0.707097
vn 0.707112 0.707102 0.000000
vn 0.707112 0.707102 0.000000
vn 0.707112 0.707102 0.000000
vn 0.707112 0.707102 0.000000
vn 0.707112 0.000000 -0.707102
vn 0.707112 0.000000 -0.707102
vn 0.707112 0.000000 -0.707102
vn 0.707112 0.000000 -0.707102
vn 0.000000 0.000000 1.000000
vn 0.000000 0.000000 1.000000
vn 0.000000 0.000000 1.000000
vn 0.000000 0.000000 1.000000
vn 0.000000 1.000000 0.000000
vn 0.000000 1.000000 0.000000
vn 0.000000 1.000000 0.000000
vn 0.000000 1.000000 0.000000
vn 0.000000 0.000000 -1.000000
vn 0.000000 0.000000 -1.000000
vn 0.000000 0.000000 -1.000000
vn 0.000000 0.000000 -1.000000
vn 0.000000 -1.000000 0.000000
vn 0.000000 -1.000000 0.000000
vn 0.000000 -1.000000 0.000000
vn 0.000000 -1.000000 0.000000
vn 1.000000 0.000000 0.000000
vn 1.000000 0.000000 0.000000
vn 1.000000 0.000000 0.000000
vn 1.000000 0.000000 0.000000
s off
g switchboard_mesh
usemtl initialShadingGroup
f 5/27/1 6/20/2 11/3/3 12/23/4
f 6/2/5 5/28/6 8/25/7 7/17/8
f 7/6/9 8/26/10 10/21/11 9/15/12
f 9/8/13 10/22/14 12/4/15 11/13/16
f 1/9/17 6/2/18 7/17/19 2/18/20
f 2/10/21 7/6/22 9/15/23 3/16/24
f 3/11/25 9/8/26 11/13/27 4/14/28
f 4/12/29 11/3/30 6/20/31 1/19/32
f 5/1/33 12/24/34 10/7/35 8/5/36
