# This file uses centimeters as units for non-parametric coordinates.

mtllib switchboard_mesh.mtl
g default
v 0.004721 1.481950 0.903756
v 0.004721 1.606609 0.903756
v 0.004721 1.606609 0.779097
v 0.004721 1.481950 0.779097
v 0.026993 1.486142 0.899564
v 0.022801 1.481950 0.903756
v 0.022801 1.606609 0.903756
v 0.026993 1.602417 0.899564
v 0.022801 1.606609 0.779097
v 0.026993 1.602417 0.783289
v 0.022801 1.481950 0.779097
v 0.026993 1.486142 0.783289
vt 0.625000 0.991593
vt 0.612501 1.000000
vt 0.612501 0.750000
vt 0.625000 0.758407
vt 0.612501 0.000000
vt 0.633407 0.008407
vt 0.633407 0.241593
vt 0.612501 0.250000
vt 0.625000 0.258407
vt 0.625000 0.491593
vt 0.612501 0.500000
vt 0.625000 0.508407
vt 0.625000 0.741593
vt 0.375000 0.000000
vt 0.375000 0.250000
vt 0.375000 0.500000
vt 0.375000 0.750000
vt 0.375000 1.000000
vt 0.866593 0.008407
vt 0.866593 0.241593
vn 0.707092 -0.707122 0.000000
vn 0.707092 -0.707122 0.000000
vn 0.707092 -0.707122 0.000000
vn 0.707092 -0.707122 0.000000
vn 0.707117 0.000000 0.707097
vn 0.707117 0.000000 0.707097
vn 0.707117 0.000000 0.707097
vn 0.707117 0.000000 0.707097
vn 0.707112 0.707102 0.000000
vn 0.707112 0.707102 0.000000
vn 0.707112 0.707102 0.000000
vn 0.707112 0.707102 0.000000
vn 0.707112 0.000000 -0.707102
vn 0.707112 0.000000 -0.707102
vn 0.707112 0.000000 -0.707102
vn 0.707112 0.000000 -0.707102
vn 0.000000 0.000000 1.000000
vn 0.000000 0.000000 1.000000
vn 0.000000 0.000000 1.000000
vn 0.000000 0.000000 1.000000
vn 0.000000 1.000000 0.000000
vn 0.000000 1.000000 0.000000
vn 0.000000 1.000000 0.000000
vn 0.000000 1.000000 0.000000
vn 0.000000 0.000000 -1.000000
vn 0.000000 0.000000 -1.000000
vn 0.000000 0.000000 -1.000000
vn 0.000000 0.000000 -1.000000
vn 0.000000 -1.000000 0.000000
vn 0.000000 -1.000000 0.000000
vn 0.000000 -1.000000 0.000000
vn 0.000000 -1.000000 0.000000
vn 1.000000 0.000000 0.000000
vn 1.000000 0.000000 0.000000
vn 1.000000 0.000000 0.000000
vn 1.000000 0.000000 0.000000
s off
g switchboard_mesh
usemtl initialShadingGroup
f 5/1/1 6/2/2 11/3/3 12/4/4
f 6/5/5 5/6/6 8/7/7 7/8/8
f 7/8/9 8/9/10 10/10/11 9/11/12
f 9/11/13 10/12/14 12/13/15 11/3/16
f 1/14/17 6/5/18 7/8/19 2/15/20
f 2/15/21 7/8/22 9/11/23 3/16/24
f 3/16/25 9/11/26 11/3/27 4/17/28
f 4/17/29 11/3/30 6/2/31 1/18/32
f 5/6/33 12/19/34 10/20/35 8/7/36
