# Blender v2.77 (sub 0) OBJ File: 'switchboard_mesh.obj'
# www.blender.org
mtllib switchboard_mesh.mtl
o switchboard_mesh
v 0.008821 -0.058138 0.058138
v 0.004629 -0.062330 0.062330
v 0.004629 -0.062330 -0.062329
v 0.008821 -0.058138 -0.058137
v 0.008821 0.058137 0.058138
v 0.004629 0.062329 0.062330
v 0.008821 0.058137 -0.058137
v 0.004629 0.062329 -0.062329
v -0.013451 -0.062330 0.062330
v -0.013451 0.062329 0.062330
v -0.013451 0.062329 -0.062329
v -0.013451 -0.062330 -0.062329
vt 0.6250 0.9916
vt 0.6125 1.0000
vt 0.6125 0.7500
vt 0.6250 0.7584
vt 0.6125 0.0000
vt 0.6334 0.0084
vt 0.6334 0.2416
vt 0.6125 0.2500
vt 0.6250 0.2584
vt 0.6250 0.4916
vt 0.6125 0.5000
vt 0.6250 0.5084
vt 0.6250 0.7416
vt 0.3750 0.0000
vt 0.3750 0.2500
vt 0.3750 0.5000
vt 0.3750 0.7500
vt 0.3750 1.0000
vt 0.8666 0.0084
vt 0.8666 0.2416
vn 0.7071 -0.7071 -0.0000
vn 0.7071 -0.0000 0.7071
vn 0.7071 0.7071 0.0000
vn 0.7071 0.0000 -0.7071
vn 0.0000 -0.0000 1.0000
vn 0.0000 1.0000 0.0000
vn 0.0000 0.0000 -1.0000
vn 0.0000 -1.0000 -0.0000
vn 1.0000 0.0000 0.0000
usemtl initialShadingGroup
s 1
f 1/1/1 2/2/1 3/3/1 4/4/1
f 2/5/2 1/6/2 5/7/2 6/8/2
f 6/8/3 5/9/3 7/10/3 8/11/3
f 8/11/4 7/12/4 4/13/4 3/3/4
f 9/14/5 2/5/5 6/8/5 10/15/5
f 10/15/6 6/8/6 8/11/6 11/16/6
f 11/16/7 8/11/7 3/3/7 12/17/7
f 12/17/8 3/3/8 2/2/8 9/18/8
f 1/6/9 4/19/9 7/20/9 5/7/9
