# This file uses centimeters as units for non-parametric coordinates.

mtllib trashCan_mesh.mtl
g default
v 0.107463 0.007358 0.114199
v -0.107463 0.007358 -0.100727
v 0.107463 0.007358 -0.100727
v -0.107463 0.007358 0.114199
v -0.000000 0.007344 0.153381
v 0.000000 0.007344 -0.139909
v 0.146645 0.007344 0.006736
v -0.146645 0.007344 0.006736
v -0.058604 0.007351 0.143568
v 0.058604 0.007351 0.143568
v -0.058604 0.007351 -0.130097
v 0.058604 0.007351 -0.130097
v 0.136832 0.007351 0.065339
v 0.136832 0.007351 -0.051868
v -0.136832 0.007351 -0.051868
v -0.136832 0.007351 0.065339
v 0.000000 0.473609 0.236029
v 0.168148 0.473609 0.174884
v -0.168148 0.473609 0.174884
v -0.229293 0.473609 0.006736
v -0.168148 0.473609 -0.161412
v 0.000000 0.473609 -0.222557
v 0.168148 0.473609 -0.161412
v 0.229293 0.473609 0.006736
v -0.155217 0.476766 0.161953
v 0.000000 0.476766 0.218396
v 0.155217 0.476766 0.161953
v 0.211660 0.476766 0.006736
v 0.155217 0.476766 -0.148482
v -0.155217 0.476766 -0.148482
v 0.000000 0.476766 -0.204924
v -0.211660 0.476766 0.006736
v 0.091717 0.473609 0.220743
v -0.091717 0.473609 0.220743
v -0.214007 0.473609 0.098453
v -0.214007 0.473609 -0.084981
v -0.091717 0.473609 -0.207271
v 0.091717 0.473609 -0.207271
v 0.214007 0.473609 -0.084981
v 0.214007 0.473609 0.098453
v -0.084664 0.476766 0.204285
v 0.084664 0.476766 0.204285
v 0.197549 0.476766 0.091400
v 0.197549 0.476766 -0.077928
v -0.084664 0.476766 -0.190814
v 0.084664 0.476766 -0.190814
v -0.197549 0.476766 -0.077928
v -0.197549 0.476766 0.091400
vt 0.639216 0.343637
vt 0.676815 0.350791
vt 0.202477 0.473658
vt 0.596487 0.727205
vt 0.949954 0.787075
vt 0.400759 0.740492
vt 0.646158 0.737363
vt 0.364327 0.420498
vt 0.812165 0.411783
vt 0.787039 0.902867
vt 0.817184 0.928995
vt 0.755327 0.402290
vt 0.698119 0.395370
vt 0.670402 0.712420
vt 0.368218 0.364812
vt 0.654005 0.972534
vt 0.514405 0.715815
vt 0.521538 0.336267
vt 0.719779 0.801372
vt 0.728172 0.849242
vt 0.554108 0.711925
vt 0.718014 0.898913
vt 0.926392 0.926429
vt 0.692295 0.942604
vt 0.823437 0.742854
vt 0.786725 0.732038
vt 0.482843 0.906760
vt 0.474450 0.858890
vt 0.257223 0.801559
vt 0.484608 0.809219
vt 0.810600 0.763513
vt 0.510327 0.765528
vt 0.697333 0.755380
vt 0.507091 0.018308
vt 0.596087 0.716473
vt 0.649955 0.727481
vt 0.099654 0.139976
vt 0.552667 0.980651
vt 0.211403 0.084413
vt 0.658463 0.982557
vt 0.699998 0.950088
vt 0.738904 0.848842
vt 0.727896 0.902710
vt 0.502625 0.758044
vt 0.474726 0.805422
vt 0.463718 0.859290
vt 0.472820 0.911218
vt 0.544159 0.725575
vt 0.101544 0.524082
vt 0.152424 0.497026
vt 0.548617 0.735598
vt 0.866104 0.423699
vt 0.919092 0.439310
vt 0.051937 0.553404
vt 0.769588 0.830670
vt 0.787978 0.390100
vt 0.197966 0.457225
vt 0.222880 0.821857
vt 0.643009 0.391592
vt 0.606135 0.980928
vt 0.556464 0.970769
vt 0.512773 0.945050
vt 0.530224 0.394657
vt 0.587769 0.391628
vt 0.418251 0.408512
vt 0.472873 0.400278
vt 0.689849 0.763082
vt 0.308800 0.435905
vt 0.254024 0.453801
vt 0.385815 0.033307
vt 0.447489 0.023647
vt 0.729802 0.796914
vt 0.267266 0.062960
vt 0.324797 0.046490
vt 0.606535 0.991659
vt 0.154731 0.110591
vt 0.505289 0.952752
vt 0.048832 0.171569
vt 0.866369 0.078258
vt 0.923883 0.102527
vt 0.000977 0.207498
vt 0.749977 0.041028
vt 0.807556 0.057327
vt 0.629228 0.022248
vt 0.691190 0.029842
vt 0.566933 0.018220
vt 0.882797 0.746063
vt 0.362839 0.752880
vt 0.327124 0.766637
vt 0.844525 0.745795
vt 0.713641 0.361215
vt 0.292445 0.782829
vt 0.784472 0.793658
vt 0.751224 0.374590
vt 0.228573 0.434246
vt 0.769320 0.868942
vt 0.405012 0.354278
vt 0.593946 0.709827
vt 0.952521 0.896284
vt 0.444005 0.345853
vt 0.632218 0.709802
vt 0.892468 0.944147
vt 0.967404 0.859271
vt 0.483418 0.339680
vt 0.476560 0.721520
vt 0.967672 0.820999
vt 0.854196 0.943879
vt 0.332489 0.378533
vt 0.296273 0.395261
vt 0.710005 0.717211
vt 0.261077 0.414040
vt 0.749353 0.723782
vt 0.559811 0.336209
vt 0.439199 0.729825
vt 0.599620 0.338783
vt 0.919809 0.760947
vn 0.337952 0.139159 -0.930819
vn 0.699906 0.142347 -0.699906
vn 0.699906 0.142347 -0.699906
vn 0.339574 0.139173 -0.930226
vn -0.337952 0.139159 -0.930819
vn 0.000000 0.137247 -0.990537
vn 0.000000 0.137247 -0.990537
vn -0.339574 0.139173 -0.930226
vn 0.339574 0.139173 0.930226
vn 0.337952 0.139159 0.930818
vn 0.000000 0.137247 0.990537
vn 0.000000 0.137247 0.990537
vn -0.339574 0.139173 0.930226
vn -0.337952 0.139159 0.930818
vn -0.699906 0.142347 0.699906
vn -0.699906 0.142347 0.699906
vn 0.000000 1.000000 0.000013
vn 0.000000 1.000000 0.000015
vn 0.000000 1.000000 0.000361
vn 0.000000 1.000000 0.000361
vn -0.930819 0.139159 -0.337952
vn -0.699906 0.142347 -0.699906
vn -0.699906 0.142347 -0.699906
vn -0.930226 0.139173 -0.339574
vn -0.990537 0.137247 -0.000000
vn -0.990537 0.137247 -0.000000
vn -0.930818 0.139159 0.337953
vn -0.930226 0.139173 0.339575
vn 0.930818 0.139159 0.337953
vn 0.699906 0.142347 0.699906
vn 0.699906 0.142347 0.699906
vn 0.930226 0.139173 0.339575
vn 0.990537 0.137247 0.000000
vn 0.990537 0.137247 0.000000
vn 0.930819 0.139159 -0.337952
vn 0.930226 0.139173 -0.339574
vn 0.060568 0.984768 0.162985
vn 0.120316 0.985418 0.120316
vn 0.120316 0.985418 0.120316
vn 0.058554 0.984747 0.163844
vn -0.060567 0.984768 0.162983
vn -0.000000 0.984342 0.176271
vn 0.000000 0.984342 0.176271
vn -0.058553 0.984747 0.163843
vn -0.060568 0.984768 -0.162986
vn -0.058554 0.984747 -0.163845
vn 0.000000 0.984342 -0.176268
vn 0.000000 0.984342 -0.176268
vn 0.060565 0.984769 -0.162976
vn 0.058551 0.984749 -0.163836
vn 0.120307 0.985420 -0.120307
vn 0.120307 0.985420 -0.120307
vn 0.162977 0.984769 -0.060564
vn 0.163836 0.984749 -0.058551
vn 0.162986 0.984768 0.060568
vn 0.176268 0.984342 0.000000
vn 0.176268 0.984342 0.000000
vn 0.163845 0.984747 0.058554
vn -0.162977 0.984769 0.060564
vn -0.163836 0.984748 0.058551
vn -0.176268 0.984342 -0.000000
vn -0.176268 0.984342 0.000000
vn -0.162986 0.984768 -0.060568
vn -0.163845 0.984747 -0.058554
vn -0.120316 0.985418 -0.120316
vn -0.120316 0.985418 -0.120316
vn -0.120310 0.985419 0.120309
vn -0.120309 0.985419 0.120309
vn -0.337709 -0.176999 -0.924459
vn 0.000000 -0.174593 -0.984641
vn 0.000000 -0.174593 -0.984641
vn -0.335666 -0.176977 -0.925207
vn -0.695432 -0.180966 -0.695432
vn -0.695432 -0.180966 -0.695432
vn 0.337709 -0.177000 -0.924459
vn 0.695432 -0.180966 -0.695432
vn 0.695432 -0.180966 -0.695432
vn 0.335666 -0.176977 -0.925207
vn -0.984641 -0.174593 0.000000
vn -0.925207 -0.176977 0.335666
vn -0.924459 -0.176999 0.337709
vn -0.984641 -0.174593 0.000000
vn -0.695432 -0.180966 0.695432
vn -0.695432 -0.180966 0.695432
vn -0.925206 -0.176977 -0.335667
vn -0.924459 -0.176999 -0.337709
vn 0.000000 -0.174593 0.984641
vn 0.335666 -0.176977 0.925206
vn 0.337709 -0.176999 0.924459
vn 0.000000 -0.174593 0.984641
vn 0.695432 -0.180966 0.695432
vn 0.695432 -0.180966 0.695432
vn -0.335666 -0.176977 0.925206
vn -0.337709 -0.176999 0.924459
vn 0.984641 -0.174593 0.000000
vn 0.925206 -0.176977 -0.335667
vn 0.924459 -0.176999 -0.337709
vn 0.984641 -0.174593 0.000000
vn 0.925207 -0.176977 0.335666
vn 0.924459 -0.176999 0.337709
vn 0.000000 1.000000 -0.000108
vn 0.000000 1.000000 -0.000106
vn 0.000000 1.000000 -0.000054
vn 0.000000 1.000000 0.000051
vn 0.000000 1.000000 0.000054
vn 0.000000 1.000000 -0.000051
vn 0.000000 1.000000 0.000106
vn 0.000000 1.000000 0.000108
vn 0.000000 1.000000 -0.000015
vn 0.000000 1.000000 -0.000013
vn 0.000000 1.000000 -0.000361
vn 0.000000 1.000000 -0.000361
s 1
g trashCan_mesh
usemtl initialShadingGroup
f 9/88/1 4/89/2 25/3/3 41/69/4
f 10/114/5 5/6/6 26/68/7 42/8/8
f 45/9/9 11/112/10 6/110/11 31/12/12
f 46/13/13 12/14/14 3/101/15 29/59/16
s 3
f 10/5/17 4/90/18 9/87/19 5/116/20
s 1
f 13/17/21 1/105/22 27/65/23 43/66/24
f 7/21/25 13/17/21 43/66/24 28/63/26
f 14/98/27 7/21/25 28/63/26 44/64/28
f 3/101/15 14/98/27 44/64/28 29/59/16
f 15/25/29 2/26/30 30/52/31 47/53/32
f 8/29/33 15/58/29 47/54/32 32/49/34
f 16/92/35 8/29/33 32/49/34 48/50/36
f 25/3/3 4/89/2 16/92/35 48/50/36
s 4
f 33/33/37 18/72/38 27/19/39 42/67/40
f 34/35/41 17/36/42 26/7/43 41/4/44
f 37/77/45 45/62/46 31/61/47 22/38/48
f 38/75/49 46/60/50 29/16/51 23/40/52
f 39/41/53 23/40/52 29/16/51 44/24/54
f 40/42/55 24/43/56 28/22/57 43/20/58
f 35/44/59 48/32/60 32/30/61 20/45/62
f 36/46/63 47/28/64 30/27/65 21/47/66
f 35/44/59 19/48/67 25/51/68 48/32/60
f 36/46/63 20/45/62 32/30/61 47/28/64
f 37/77/45 21/47/66 30/27/65 45/62/46
s 7
f 37/37/69 22/76/70 6/109/71 11/111/72
f 21/78/73 37/37/69 11/111/72 2/95/74
s 4
f 38/75/49 22/38/48 31/61/47 46/60/50
s 7
f 38/39/75 23/73/76 3/15/77 12/108/78
f 6/109/71 22/76/70 38/39/75 12/108/78
s 1
f 9/88/1 41/69/4 26/68/7 5/6/6
s 4
f 34/35/41 41/4/44 25/51/68 19/48/67
f 33/33/37 42/67/40 26/7/43 17/36/42
s 1
f 10/114/5 42/8/8 27/65/23 1/105/22
s 4
f 40/42/55 43/20/58 27/19/39 18/72/38
f 39/41/53 44/24/54 28/22/57 24/43/56
s 1
f 45/9/9 30/52/31 2/26/30 11/112/10
f 46/13/13 31/12/12 6/110/11 12/14/14
s 7
f 8/94/79 16/91/80 35/83/81 20/79/82
f 16/91/80 4/2/83 19/82/84 35/83/81
f 21/78/73 2/95/74 15/57/85 36/81/86
f 15/56/85 8/94/79 20/79/82 36/80/86
f 5/115/87 10/113/88 33/86/89 17/84/90
f 10/113/88 1/18/91 18/34/92 33/86/89
f 19/82/84 4/2/83 9/1/93 34/85/94
f 9/1/93 5/115/87 17/84/90 34/85/94
f 7/100/95 14/97/96 39/74/97 24/70/98
f 14/97/96 3/15/77 23/73/76 39/74/97
f 18/34/92 1/18/91 13/104/99 40/71/100
f 13/104/99 7/100/95 24/70/98 40/71/100
s 3
f 1/106/101 16/31/102 4/90/18 10/5/17
f 13/103/103 7/99/104 15/55/105 8/93/106
f 13/103/103 8/93/106 16/31/102 1/106/101
f 15/55/105 7/99/104 14/23/107 2/96/108
f 2/96/108 14/23/107 3/102/109 11/10/110
f 11/10/110 3/102/109 12/107/111 6/11/112
